<svg width="1272" height="884" viewBox="0 0 1272 884" fill="none" xmlns="http://www.w3.org/2000/svg">
<path d="M0 0H1190L1023.06 607.094C1013.19 642.995 984.188 670.438 947.798 678.316L0 883.5V0Z" fill="url(#paint0_linear)"/>
<ellipse rx="16.4679" ry="16.2217" transform="matrix(0.94101 0.33838 -0.305558 0.952173 560.411 171.03)" fill="url(#paint1_linear)"/>
<ellipse rx="39.9935" ry="39.3955" transform="matrix(0.94101 0.33838 -0.305558 0.952173 651.627 623.546)" fill="url(#paint2_linear)"/>
<ellipse rx="20.7025" ry="20.3929" transform="matrix(0.94101 0.33838 -0.305558 0.952173 911.438 381.405)" fill="url(#paint3_linear)"/>
<ellipse rx="10.3512" ry="10.1965" transform="matrix(0.94101 0.33838 -0.305558 0.952173 109.856 144.211)" fill="url(#paint4_linear)"/>
<ellipse rx="16.4679" ry="16.2217" transform="matrix(0.94101 0.33838 -0.305558 0.952173 1251.45 578.018)" fill="url(#paint5_linear)"/>
<defs>
<linearGradient id="paint0_linear" x1="0" y1="0" x2="967.339" y2="942.196" gradientUnits="userSpaceOnUse">
<stop offset=".2" stop-color="#179CE6"/>
<stop offset=".9" stop-color="#8BCEF3"/>
</linearGradient>
<linearGradient id="paint1_linear" x1="0" y1="0" x2="8.4396" y2="8.932" gradientUnits="userSpaceOnUse">
<stop offset="0.001875" stop-color="#74C4F1"/>
<stop offset="0.995417" stop-color="#179CE6"/>
</linearGradient>
<linearGradient id="paint2_linear" x1="0" y1="0" x2="30.782" y2="30.9778" gradientUnits="userSpaceOnUse">
<stop offset="0.01875" stop-color="#74C4F1"/>
<stop offset="0.97417" stop-color="#179CE6"/>
</linearGradient>
<linearGradient id="paint3_linear" x1="0" y1="0" x2="11.7813" y2="11.4003" gradientUnits="userSpaceOnUse">
<stop offset="0.011875" stop-color="#74C4F1"/>
<stop offset="0.985417" stop-color="#179CE6"/>
</linearGradient>
<linearGradient id="paint4_linear" x1="0" y1="0" x2="12.3906" y2="12.7001" gradientUnits="userSpaceOnUse">
<stop offset="0.0011875" stop-color="#74C4F1"/>
<stop offset="0.450547" stop-color="#179CE6"/>
</linearGradient>
<linearGradient id="paint5_linear" x1="0" y1="0" x2="7.4396" y2="7.932" gradientUnits="userSpaceOnUse">
<stop offset="0.01875" stop-color="#74C4F1"/>
<stop offset="0.925417" stop-color="#179CE6"/>
</linearGradient>
</defs>
</svg>