<svg width="208" height="56" viewBox="0 0 208 56" fill="none" xmlns="http://www.w3.org/2000/svg">
<circle cx="30.2369" cy="29.2468" r="24.3511" fill="#179CE6" stroke="white" stroke-width="2.92214"/>
<mask id="mask0" style="mask-type:alpha" maskUnits="userSpaceOnUse" x="9" y="8" width="43" height="42">
<circle cx="30.3585" cy="29.1269" r="20.8202" fill="#C4C4C4"/>
</mask>
<g mask="url(#mask0)">
<path d="M16.9655 34.1174L11.6083 38.3788C6.49451 49.9456 14.1651 50.9197 30.4804 52.3807C56.9013 45.4407 56.4143 34.1174 50.8135 17.1934L30.2368 35.9437L22.4445 29.8559L16.9655 34.1174Z" fill="white"/>
<path d="M16.6002 29.9777L9.90367 34.9697C4.78991 23.7682 14.8473 9.6655 25.9753 5.87012C39.5884 7.89307 44.6495 7.99427 45.4564 15.7323L30.1151 31.4388L22.5663 25.1075L16.6002 29.9777Z" fill="white"/>
</g>
<path d="M4.21575 51.6922C-1.76179 50.7485 3.5612 40.7542 10.2342 32.4883C0.665137 42.4191 -2.17852 50.7627 3.52572 52.864C11.4936 54.0528 21.374 43.4191 33.8894 31.1955L32.7936 30.0997C20.727 43.2474 9.77671 52.6501 4.21575 51.6922Z" fill="url(#paint0_linear)"/>
<path d="M5.76876 37.5275C6.79206 35.9797 6.81486 35.9783 8.04069 34.849L8.1381 35.2142L6.0805 38.3798L5.76876 37.5275Z" fill="white"/>
<path d="M60.8912 1.03912C60.8912 1.03912 52.7404 0.469097 45.6518 8.21068C42.0974 11.8497 39.289 16.6169 37.1554 20.8899L31.3014 19.7545L27.7571 23.6253L34.3879 26.584C33.7539 28.0049 33.4288 28.8449 33.4288 28.8449L35.4222 30.7661C35.4222 30.7661 36.4048 30.21 37.7747 29.6854L41.3042 36.031L44.8485 32.1602L43.435 26.418C47.2721 23.9274 52.0056 20.7008 55.3283 17.0719C62.1852 9.34053 60.8912 1.03912 60.8912 1.03912ZM53.9658 12.4883C53.0797 13.456 51.4577 13.5274 50.2584 12.6515C49.2907 11.7654 49.2193 10.1433 50.0952 8.94385C50.9813 7.97616 52.6033 7.90478 53.8026 8.7807C54.7703 9.66683 54.8417 11.2889 53.9658 12.4883Z" fill="url(#paint1_angular)"/>
<path d="M34.3765 29.8561L60.9192 1" stroke="white" stroke-width="0.974045"/>
<path d="M82.1862 29.3838L77.8737 21.7668H76.0254V29.3838H72.1049V9.83714H79.4419C80.9541 9.83714 82.2422 10.1078 83.3064 10.6493C84.3705 11.172 85.164 11.8908 85.6867 12.8055C86.2281 13.7017 86.4988 14.7098 86.4988 15.83C86.4988 17.1181 86.1254 18.285 85.3787 19.3304C84.6319 20.3572 83.5211 21.0667 82.0462 21.4587L86.7229 29.3838H82.1862ZM76.0254 18.8264H79.3018C80.366 18.8264 81.1594 18.5743 81.6822 18.0703C82.2049 17.5475 82.4663 16.8288 82.4663 15.914C82.4663 15.0178 82.2049 14.3271 81.6822 13.8417C81.1594 13.3376 80.366 13.0856 79.3018 13.0856H76.0254V18.8264ZM89.0367 21.5707C89.0367 20.0025 89.3447 18.6117 89.9608 17.3982C90.5955 16.1847 91.445 15.2512 92.5091 14.5978C93.5919 13.9444 94.7961 13.6177 96.1216 13.6177C97.2791 13.6177 98.2872 13.851 99.146 14.3177C100.023 14.7845 100.724 15.3726 101.246 16.082V13.8697H105.195V29.3838H101.246V27.1155C100.742 27.8436 100.042 28.4503 99.146 28.9357C98.2686 29.4025 97.2511 29.6358 96.0936 29.6358C94.7868 29.6358 93.5919 29.2998 92.5091 28.6277C91.445 27.9556 90.5955 27.0128 89.9608 25.7993C89.3447 24.5671 89.0367 23.1576 89.0367 21.5707ZM101.246 21.6267C101.246 20.6746 101.06 19.8625 100.686 19.1904C100.313 18.4996 99.8088 17.9769 99.174 17.6222C98.5393 17.2488 97.8579 17.0621 97.1298 17.0621C96.4017 17.0621 95.7296 17.2395 95.1135 17.5942C94.4974 17.9489 93.9933 18.4716 93.6013 19.1624C93.2279 19.8345 93.0412 20.6373 93.0412 21.5707C93.0412 22.5042 93.2279 23.3256 93.6013 24.0351C93.9933 24.7258 94.4974 25.2579 95.1135 25.6313C95.7482 26.0047 96.4203 26.1914 97.1298 26.1914C97.8579 26.1914 98.5393 26.014 99.174 25.6593C99.8088 25.2859 100.313 24.7632 100.686 24.0911C101.06 23.4003 101.246 22.5789 101.246 21.6267ZM117.621 13.6457C119.469 13.6457 120.963 14.2337 122.102 15.4099C123.241 16.5674 123.81 18.1916 123.81 20.2826V29.3838H119.889V20.8146C119.889 19.5825 119.581 18.6397 118.965 17.9862C118.349 17.3142 117.509 16.9781 116.445 16.9781C115.362 16.9781 114.503 17.3142 113.869 17.9862C113.253 18.6397 112.944 19.5825 112.944 20.8146V29.3838H109.024V13.8697H112.944V15.8019C113.467 15.1299 114.13 14.6071 114.933 14.2337C115.754 13.8417 116.65 13.6457 117.621 13.6457ZM136.723 29.3838L131.459 22.7749V29.3838H127.538V8.66098H131.459V20.4506L136.667 13.8697H141.764L134.931 21.6547L141.82 29.3838H136.723ZM155.962 9.83714V13.0016H147.812V18.0142H154.057V21.1227H147.812V29.3838H143.892V9.83714H155.962ZM173.388 13.8697V29.3838H169.439V27.4235C168.935 28.0956 168.272 28.6277 167.451 29.0197C166.648 29.3931 165.771 29.5798 164.818 29.5798C163.605 29.5798 162.531 29.3278 161.598 28.8237C160.665 28.301 159.927 27.5449 159.386 26.5554C158.863 25.5473 158.602 24.3524 158.602 22.9709V13.8697H162.522V22.4108C162.522 23.643 162.83 24.5951 163.446 25.2672C164.062 25.9207 164.902 26.2474 165.967 26.2474C167.049 26.2474 167.899 25.9207 168.515 25.2672C169.131 24.5951 169.439 23.643 169.439 22.4108V13.8697H173.388ZM183.193 29.6358C181.923 29.6358 180.784 29.4118 179.776 28.9637C178.768 28.497 177.965 27.8716 177.368 27.0875C176.789 26.3034 176.472 25.4353 176.416 24.4831H180.364C180.439 25.0805 180.728 25.5753 181.232 25.9673C181.755 26.3594 182.399 26.5554 183.165 26.5554C183.911 26.5554 184.49 26.4061 184.901 26.1073C185.33 25.8086 185.545 25.4259 185.545 24.9592C185.545 24.4551 185.284 24.0817 184.761 23.839C184.257 23.5777 183.445 23.2976 182.325 22.9989C181.167 22.7189 180.215 22.4295 179.468 22.1308C178.74 21.8321 178.105 21.3747 177.564 20.7586C177.041 20.1425 176.78 19.3118 176.78 18.2663C176.78 17.4075 177.022 16.6234 177.508 15.914C178.012 15.2045 178.721 14.6445 179.636 14.2337C180.57 13.823 181.662 13.6177 182.913 13.6177C184.761 13.6177 186.236 14.0844 187.337 15.0178C188.439 15.9326 189.045 17.1741 189.157 18.7423H185.405C185.349 18.1263 185.088 17.6409 184.621 17.2861C184.173 16.9128 183.566 16.7261 182.801 16.7261C182.091 16.7261 181.54 16.8568 181.148 17.1181C180.775 17.3795 180.588 17.7435 180.588 18.2103C180.588 18.733 180.85 19.1344 181.372 19.4144C181.895 19.6758 182.707 19.9465 183.809 20.2265C184.929 20.5066 185.853 20.796 186.581 21.0947C187.309 21.3934 187.935 21.8601 188.457 22.4949C188.999 23.1109 189.279 23.9324 189.297 24.9592C189.297 25.8553 189.045 26.6581 188.541 27.3675C188.056 28.0769 187.347 28.637 186.413 29.0477C185.498 29.4398 184.425 29.6358 183.193 29.6358ZM206.938 21.2907C206.938 21.8508 206.9 22.3548 206.826 22.8029H195.484C195.577 23.923 195.97 24.8005 196.66 25.4353C197.351 26.07 198.2 26.3874 199.209 26.3874C200.665 26.3874 201.701 25.762 202.317 24.5111H206.546C206.098 26.0047 205.239 27.2368 203.969 28.2076C202.7 29.1598 201.141 29.6358 199.293 29.6358C197.799 29.6358 196.455 29.3091 195.26 28.6557C194.084 27.9836 193.16 27.0408 192.488 25.8273C191.834 24.6138 191.508 23.2136 191.508 21.6267C191.508 20.0212 191.834 18.6117 192.488 17.3982C193.141 16.1847 194.056 15.2512 195.232 14.5978C196.408 13.9444 197.762 13.6177 199.293 13.6177C200.767 13.6177 202.084 13.935 203.241 14.5698C204.417 15.2045 205.323 16.11 205.958 17.2861C206.611 18.4436 206.938 19.7785 206.938 21.2907ZM202.877 20.1705C202.858 19.1624 202.494 18.3596 201.785 17.7622C201.076 17.1461 200.207 16.8381 199.181 16.8381C198.21 16.8381 197.388 17.1368 196.716 17.7342C196.063 18.313 195.661 19.1251 195.512 20.1705H202.877Z" fill="white"/>
<path d="M75.0842 35.2959C76.1021 35.2959 76.9815 35.4878 77.7226 35.8718C78.4726 36.2468 79.0441 36.787 79.4369 37.4923C79.8387 38.1977 80.0396 39.0281 80.0396 39.9834C80.0396 40.9388 79.8387 41.7692 79.4369 42.4746C79.0441 43.171 78.4726 43.7067 77.7226 44.0817C76.9815 44.4478 76.1021 44.6309 75.0842 44.6309H72.1779V35.2959H75.0842ZM75.0842 43.6264C76.2896 43.6264 77.2092 43.3094 77.8432 42.6755C78.4771 42.0326 78.7941 41.1353 78.7941 39.9834C78.7941 38.8227 78.4726 37.9164 77.8298 37.2646C77.1958 36.6128 76.2806 36.2869 75.0842 36.2869H73.3967V43.6264H75.0842ZM82.2767 36.0994C82.0446 36.0994 81.8481 36.0191 81.6874 35.8584C81.5267 35.6976 81.4463 35.5012 81.4463 35.2691C81.4463 35.0369 81.5267 34.8405 81.6874 34.6798C81.8481 34.5191 82.0446 34.4387 82.2767 34.4387C82.4999 34.4387 82.6874 34.5191 82.8392 34.6798C82.9999 34.8405 83.0803 35.0369 83.0803 35.2691C83.0803 35.5012 82.9999 35.6976 82.8392 35.8584C82.6874 36.0191 82.4999 36.0994 82.2767 36.0994ZM82.866 37.2914V44.6309H81.6472V37.2914H82.866ZM87.97 37.1709C88.604 37.1709 89.1576 37.3093 89.6308 37.5861C90.1129 37.8629 90.4701 38.2111 90.7022 38.6307V37.2914H91.9344V44.7916C91.9344 45.4612 91.7915 46.055 91.5058 46.5729C91.2201 47.0997 90.8094 47.5104 90.2737 47.805C89.7469 48.0997 89.1308 48.247 88.4254 48.247C87.4611 48.247 86.6575 48.0193 86.0146 47.564C85.3718 47.1086 84.9923 46.488 84.8762 45.7023H86.0816C86.2155 46.1487 86.4923 46.5059 86.912 46.7738C87.3316 47.0506 87.8361 47.1889 88.4254 47.1889C89.0951 47.1889 89.6397 46.9791 90.0594 46.5595C90.4879 46.1398 90.7022 45.5505 90.7022 44.7916V43.2514C90.4612 43.6799 90.104 44.0371 89.6308 44.3228C89.1576 44.6085 88.604 44.7514 87.97 44.7514C87.3182 44.7514 86.7245 44.5907 86.1888 44.2692C85.662 43.9478 85.2468 43.4969 84.9432 42.9165C84.6396 42.3362 84.4878 41.6754 84.4878 40.9344C84.4878 40.1843 84.6396 39.5281 84.9432 38.9656C85.2468 38.3941 85.662 37.9522 86.1888 37.6397C86.7245 37.3271 87.3182 37.1709 87.97 37.1709ZM90.7022 40.9478C90.7022 40.3942 90.5906 39.912 90.3674 39.5013C90.1442 39.0906 89.8406 38.7781 89.4567 38.5638C89.0817 38.3406 88.6665 38.2289 88.2111 38.2289C87.7558 38.2289 87.3406 38.3361 86.9656 38.5504C86.5905 38.7647 86.2914 39.0772 86.0682 39.4879C85.845 39.8986 85.7334 40.3808 85.7334 40.9344C85.7334 41.4969 85.845 41.988 86.0682 42.4076C86.2914 42.8183 86.5905 43.1353 86.9656 43.3585C87.3406 43.5728 87.7558 43.6799 88.2111 43.6799C88.6665 43.6799 89.0817 43.5728 89.4567 43.3585C89.8406 43.1353 90.1442 42.8183 90.3674 42.4076C90.5906 41.988 90.7022 41.5013 90.7022 40.9478ZM94.6235 36.0994C94.3913 36.0994 94.1949 36.0191 94.0342 35.8584C93.8735 35.6976 93.7931 35.5012 93.7931 35.2691C93.7931 35.0369 93.8735 34.8405 94.0342 34.6798C94.1949 34.5191 94.3913 34.4387 94.6235 34.4387C94.8467 34.4387 95.0342 34.5191 95.186 34.6798C95.3467 34.8405 95.4271 35.0369 95.4271 35.2691C95.4271 35.5012 95.3467 35.6976 95.186 35.8584C95.0342 36.0191 94.8467 36.0994 94.6235 36.0994ZM95.2128 37.2914V44.6309H93.994V37.2914H95.2128ZM98.7766 38.2959V42.6219C98.7766 42.979 98.8525 43.2335 99.0043 43.3853C99.1561 43.5282 99.4195 43.5996 99.7945 43.5996H100.692V44.6309H99.5936C98.915 44.6309 98.4061 44.4746 98.0668 44.1621C97.7275 43.8496 97.5578 43.3362 97.5578 42.6219V38.2959H96.6069V37.2914H97.5578V35.4432H98.7766V37.2914H100.692V38.2959H98.7766ZM101.713 40.9344C101.713 40.1843 101.865 39.5281 102.169 38.9656C102.472 38.3941 102.887 37.9522 103.414 37.6397C103.95 37.3271 104.544 37.1709 105.195 37.1709C105.838 37.1709 106.396 37.3093 106.87 37.5861C107.343 37.8629 107.695 38.2111 107.928 38.6307V37.2914H109.16V44.6309H107.928V43.2648C107.686 43.6933 107.325 44.0505 106.843 44.3362C106.37 44.613 105.816 44.7514 105.182 44.7514C104.53 44.7514 103.941 44.5907 103.414 44.2692C102.887 43.9478 102.472 43.4969 102.169 42.9165C101.865 42.3362 101.713 41.6754 101.713 40.9344ZM107.928 40.9478C107.928 40.3942 107.816 39.912 107.593 39.5013C107.37 39.0906 107.066 38.7781 106.682 38.5638C106.307 38.3406 105.892 38.2289 105.436 38.2289C104.981 38.2289 104.566 38.3361 104.191 38.5504C103.816 38.7647 103.517 39.0772 103.294 39.4879C103.07 39.8986 102.959 40.3808 102.959 40.9344C102.959 41.4969 103.07 41.988 103.294 42.4076C103.517 42.8183 103.816 43.1353 104.191 43.3585C104.566 43.5728 104.981 43.6799 105.436 43.6799C105.892 43.6799 106.307 43.5728 106.682 43.3585C107.066 43.1353 107.37 42.8183 107.593 42.4076C107.816 41.988 107.928 41.5013 107.928 40.9478ZM112.438 34.7199V44.6309H111.219V34.7199H112.438ZM127.555 35.3628V44.6309H126.336V37.72L123.256 44.6309H122.399L119.305 37.7066V44.6309H118.086V35.3628H119.398L122.827 43.0237L126.256 35.3628H127.555ZM129.166 40.9344C129.166 40.1843 129.318 39.5281 129.622 38.9656C129.925 38.3941 130.341 37.9522 130.867 37.6397C131.403 37.3271 131.997 37.1709 132.649 37.1709C133.292 37.1709 133.85 37.3093 134.323 37.5861C134.796 37.8629 135.149 38.2111 135.381 38.6307V37.2914H136.613V44.6309H135.381V43.2648C135.14 43.6933 134.778 44.0505 134.296 44.3362C133.823 44.613 133.269 44.7514 132.635 44.7514C131.983 44.7514 131.394 44.5907 130.867 44.2692C130.341 43.9478 129.925 43.4969 129.622 42.9165C129.318 42.3362 129.166 41.6754 129.166 40.9344ZM135.381 40.9478C135.381 40.3942 135.269 39.912 135.046 39.5013C134.823 39.0906 134.519 38.7781 134.135 38.5638C133.76 38.3406 133.345 38.2289 132.89 38.2289C132.434 38.2289 132.019 38.3361 131.644 38.5504C131.269 38.7647 130.97 39.0772 130.747 39.4879C130.524 39.8986 130.412 40.3808 130.412 40.9344C130.412 41.4969 130.524 41.988 130.747 42.4076C130.97 42.8183 131.269 43.1353 131.644 43.3585C132.019 43.5728 132.434 43.6799 132.89 43.6799C133.345 43.6799 133.76 43.5728 134.135 43.3585C134.519 43.1353 134.823 42.8183 135.046 42.4076C135.269 41.988 135.381 41.5013 135.381 40.9478ZM139.891 38.4834C140.106 38.0638 140.409 37.7379 140.802 37.5057C141.204 37.2736 141.691 37.1575 142.262 37.1575V38.4165H141.941C140.574 38.4165 139.891 39.1575 139.891 40.6397V44.6309H138.673V37.2914H139.891V38.4834ZM147.767 44.6309L144.888 41.3897V44.6309H143.669V34.7199H144.888V40.546L147.714 37.2914H149.415L145.959 40.9478L149.428 44.6309H147.767ZM157.258 40.6799C157.258 40.912 157.245 41.1576 157.218 41.4165H151.352C151.396 42.1397 151.642 42.7067 152.088 43.1174C152.544 43.5192 153.093 43.7201 153.736 43.7201C154.263 43.7201 154.7 43.5996 155.048 43.3585C155.405 43.1085 155.655 42.7781 155.798 42.3674H157.111C156.914 43.0728 156.522 43.6487 155.932 44.0951C155.343 44.5326 154.611 44.7514 153.736 44.7514C153.039 44.7514 152.414 44.5951 151.861 44.2826C151.316 43.9701 150.888 43.5282 150.575 42.9567C150.263 42.3764 150.106 41.7067 150.106 40.9478C150.106 40.1888 150.258 39.5236 150.562 38.9522C150.865 38.3807 151.289 37.9432 151.834 37.6397C152.388 37.3271 153.022 37.1709 153.736 37.1709C154.432 37.1709 155.048 37.3227 155.584 37.6263C156.12 37.9298 156.531 38.3495 156.816 38.8852C157.111 39.412 157.258 40.0102 157.258 40.6799ZM155.999 40.4254C155.999 39.9611 155.897 39.5638 155.691 39.2334C155.486 38.8941 155.205 38.6397 154.847 38.47C154.499 38.2914 154.111 38.2022 153.682 38.2022C153.066 38.2022 152.539 38.3986 152.102 38.7915C151.673 39.1843 151.428 39.729 151.365 40.4254H155.999ZM160.354 38.2959V42.6219C160.354 42.979 160.429 43.2335 160.581 43.3853C160.733 43.5282 160.996 43.5996 161.371 43.5996H162.269V44.6309H161.171C160.492 44.6309 159.983 44.4746 159.644 44.1621C159.304 43.8496 159.135 43.3362 159.135 42.6219V38.2959H158.184V37.2914H159.135V35.4432H160.354V37.2914H162.269V38.2959H160.354ZM164.375 36.0994C164.143 36.0994 163.946 36.0191 163.786 35.8584C163.625 35.6976 163.545 35.5012 163.545 35.2691C163.545 35.0369 163.625 34.8405 163.786 34.6798C163.946 34.5191 164.143 34.4387 164.375 34.4387C164.598 34.4387 164.786 34.5191 164.937 34.6798C165.098 34.8405 165.179 35.0369 165.179 35.2691C165.179 35.5012 165.098 35.6976 164.937 35.8584C164.786 36.0191 164.598 36.0994 164.375 36.0994ZM164.964 37.2914V44.6309H163.745V37.2914H164.964ZM170.617 37.1575C171.51 37.1575 172.234 37.4298 172.787 37.9745C173.341 38.5102 173.617 39.287 173.617 40.3049V44.6309H172.412V40.479C172.412 39.7468 172.229 39.1888 171.863 38.8049C171.497 38.412 170.997 38.2156 170.363 38.2156C169.72 38.2156 169.207 38.4165 168.823 38.8182C168.448 39.22 168.26 39.8049 168.26 40.5727V44.6309H167.041V37.2914H168.26V38.3361C168.501 37.9611 168.827 37.6709 169.238 37.4655C169.658 37.2602 170.117 37.1575 170.617 37.1575ZM178.635 37.1709C179.269 37.1709 179.823 37.3093 180.296 37.5861C180.778 37.8629 181.135 38.2111 181.367 38.6307V37.2914H182.6V44.7916C182.6 45.4612 182.457 46.055 182.171 46.5729C181.885 47.0997 181.475 47.5104 180.939 47.805C180.412 48.0997 179.796 48.247 179.091 48.247C178.126 48.247 177.323 48.0193 176.68 47.564C176.037 47.1086 175.657 46.488 175.541 45.7023H176.747C176.881 46.1487 177.157 46.5059 177.577 46.7738C177.997 47.0506 178.501 47.1889 179.091 47.1889C179.76 47.1889 180.305 46.9791 180.725 46.5595C181.153 46.1398 181.367 45.5505 181.367 44.7916V43.2514C181.126 43.6799 180.769 44.0371 180.296 44.3228C179.823 44.6085 179.269 44.7514 178.635 44.7514C177.983 44.7514 177.39 44.5907 176.854 44.2692C176.327 43.9478 175.912 43.4969 175.608 42.9165C175.305 42.3362 175.153 41.6754 175.153 40.9344C175.153 40.1843 175.305 39.5281 175.608 38.9656C175.912 38.3941 176.327 37.9522 176.854 37.6397C177.39 37.3271 177.983 37.1709 178.635 37.1709ZM181.367 40.9478C181.367 40.3942 181.256 39.912 181.033 39.5013C180.809 39.0906 180.506 38.7781 180.122 38.5638C179.747 38.3406 179.332 38.2289 178.876 38.2289C178.421 38.2289 178.006 38.3361 177.631 38.5504C177.256 38.7647 176.957 39.0772 176.733 39.4879C176.51 39.8986 176.399 40.3808 176.399 40.9344C176.399 41.4969 176.51 41.988 176.733 42.4076C176.957 42.8183 177.256 43.1353 177.631 43.3585C178.006 43.5728 178.421 43.6799 178.876 43.6799C179.332 43.6799 179.747 43.5728 180.122 43.3585C180.506 43.1353 180.809 42.8183 181.033 42.4076C181.256 41.988 181.367 41.5013 181.367 40.9478Z" fill="white"/>
<defs>
<linearGradient id="paint0_linear" x1="30.8456" y1="34.6047" x2="1.50245" y2="47.5108" gradientUnits="userSpaceOnUse">
<stop offset="0.666667" stop-color="#FF6006"/>
<stop offset="1" stop-color="#FFAE80"/>
</linearGradient>
<radialGradient id="paint1_angular" cx="0" cy="0" r="1" gradientUnits="userSpaceOnUse" gradientTransform="translate(34.4277 29.7748) rotate(-47.6292) scale(38.9477)">
<stop offset="3.04631e-05" stop-color="#106EA2"/>
<stop offset="0.000184902" stop-color="#0FCD9E"/>
</radialGradient>
</defs>
</svg>
