<svg width="1228" height="477" viewBox="0 0 1228 477" fill="none" xmlns="http://www.w3.org/2000/svg">
<path d="M0 0H1228L1109.99 303.429C1096.45 338.25 1064.62 362.618 1027.47 366.609L0 477V0Z" fill="url(#paint0_linear)"/>
<circle cx="900.108" cy="267.108" r="2.10784" fill="white"/>
<circle cx="1110.89" cy="267.108" r="2.10784" fill="white"/>
<circle cx="1005.5" cy="267.108" r="2.10784" fill="white"/>
<circle cx="1058.2" cy="267.108" r="2.10784" fill="white"/>
<circle cx="952.804" cy="267.108" r="2.10784" fill="white"/>
<circle cx="979.503" cy="267.108" r="2.10784" fill="white"/>
<circle cx="926.807" cy="267.108" r="2.10784" fill="white"/>
<circle cx="1032.2" cy="267.108" r="2.10784" fill="white"/>
<circle cx="1084.9" cy="267.108" r="2.10784" fill="white"/>
<circle cx="900.108" cy="407.63" r="2.10784" fill="white"/>
<circle cx="1110.89" cy="407.63" r="2.10784" fill="white"/>
<circle cx="1005.5" cy="407.63" r="2.10784" fill="white"/>
<circle cx="1058.2" cy="407.63" r="2.10784" fill="white"/>
<circle cx="952.804" cy="407.63" r="2.10784" fill="white"/>
<circle cx="979.503" cy="407.63" r="2.10784" fill="white"/>
<circle cx="926.807" cy="407.63" r="2.10784" fill="white"/>
<circle cx="1032.2" cy="407.63" r="2.10784" fill="white"/>
<circle cx="1084.9" cy="407.63" r="2.10784" fill="white"/>
<circle cx="900.108" cy="337.37" r="2.10784" fill="white"/>
<circle cx="1110.89" cy="337.37" r="2.10784" fill="white"/>
<circle cx="1005.5" cy="337.37" r="2.10784" fill="white"/>
<circle cx="1058.2" cy="337.37" r="2.10784" fill="white"/>
<circle cx="952.804" cy="337.37" r="2.10784" fill="white"/>
<circle cx="979.503" cy="337.37" r="2.10784" fill="white"/>
<circle cx="926.807" cy="337.37" r="2.10784" fill="white"/>
<circle cx="1032.2" cy="337.37" r="2.10784" fill="white"/>
<circle cx="1084.9" cy="337.37" r="2.10784" fill="white"/>
<circle cx="900.108" cy="372.5" r="2.10784" fill="white"/>
<circle cx="1110.89" cy="372.5" r="2.10784" fill="white"/>
<circle cx="1005.5" cy="372.5" r="2.10784" fill="white"/>
<circle cx="1058.2" cy="372.5" r="2.10784" fill="white"/>
<circle cx="952.804" cy="372.5" r="2.10784" fill="white"/>
<circle cx="979.503" cy="372.5" r="2.10784" fill="white"/>
<circle cx="926.807" cy="372.5" r="2.10784" fill="white"/>
<circle cx="1032.2" cy="372.5" r="2.10784" fill="white"/>
<circle cx="1084.9" cy="372.5" r="2.10784" fill="white"/>
<circle cx="900.108" cy="302.239" r="2.10784" fill="white"/>
<circle cx="1110.89" cy="302.239" r="2.10784" fill="white"/>
<circle cx="1005.5" cy="302.239" r="2.10784" fill="white"/>
<circle cx="1058.2" cy="302.239" r="2.10784" fill="white"/>
<circle cx="952.804" cy="302.239" r="2.10784" fill="white"/>
<circle cx="979.503" cy="302.239" r="2.10784" fill="white"/>
<circle cx="926.807" cy="302.239" r="2.10784" fill="white"/>
<circle cx="1032.2" cy="302.239" r="2.10784" fill="white"/>
<circle cx="1084.9" cy="302.239" r="2.10784" fill="white"/>
<circle cx="900.108" cy="284.673" r="2.10784" fill="white"/>
<circle cx="1110.89" cy="284.673" r="2.10784" fill="white"/>
<circle cx="1005.5" cy="284.673" r="2.10784" fill="white"/>
<circle cx="1058.2" cy="284.673" r="2.10784" fill="white"/>
<circle cx="952.804" cy="284.673" r="2.10784" fill="white"/>
<circle cx="979.503" cy="284.673" r="2.10784" fill="white"/>
<circle cx="926.807" cy="284.673" r="2.10784" fill="white"/>
<circle cx="1032.2" cy="284.673" r="2.10784" fill="white"/>
<circle cx="1084.9" cy="284.673" r="2.10784" fill="white"/>
<circle cx="900.108" cy="319.804" r="2.10784" fill="white"/>
<circle cx="1110.89" cy="319.804" r="2.10784" fill="white"/>
<circle cx="1005.5" cy="319.804" r="2.10784" fill="white"/>
<circle cx="1058.2" cy="319.804" r="2.10784" fill="white"/>
<circle cx="952.804" cy="319.804" r="2.10784" fill="white"/>
<circle cx="979.503" cy="319.804" r="2.10784" fill="white"/>
<circle cx="926.807" cy="319.804" r="2.10784" fill="white"/>
<circle cx="1032.2" cy="319.804" r="2.10784" fill="white"/>
<circle cx="1084.9" cy="319.804" r="2.10784" fill="white"/>
<circle cx="900.108" cy="354.935" r="2.10784" fill="white"/>
<circle cx="1110.89" cy="354.935" r="2.10784" fill="white"/>
<circle cx="1005.5" cy="354.935" r="2.10784" fill="white"/>
<circle cx="1058.2" cy="354.935" r="2.10784" fill="white"/>
<circle cx="952.804" cy="354.935" r="2.10784" fill="white"/>
<circle cx="979.503" cy="354.935" r="2.10784" fill="white"/>
<circle cx="926.807" cy="354.935" r="2.10784" fill="white"/>
<circle cx="1032.2" cy="354.935" r="2.10784" fill="white"/>
<circle cx="1084.9" cy="354.935" r="2.10784" fill="white"/>
<circle cx="900.108" cy="390.065" r="2.10784" fill="white"/>
<circle cx="1110.89" cy="390.065" r="2.10784" fill="white"/>
<circle cx="1005.5" cy="390.065" r="2.10784" fill="white"/>
<circle cx="1058.2" cy="390.065" r="2.10784" fill="white"/>
<circle cx="952.804" cy="390.065" r="2.10784" fill="white"/>
<circle cx="979.503" cy="390.065" r="2.10784" fill="white"/>
<circle cx="926.807" cy="390.065" r="2.10784" fill="white"/>
<circle cx="1032.2" cy="390.065" r="2.10784" fill="white"/>
<circle cx="1084.9" cy="390.065" r="2.10784" fill="white"/>
<ellipse rx="16.4679" ry="16.2217" transform="matrix(0.94101 0.33838 -0.305558 0.952173 560.411 171.03)" fill="url(#paint1_linear)"/>
<ellipse rx="39.9935" ry="39.3955" transform="matrix(0.94101 0.33838 -0.305558 0.952173 479.672 424.044)" fill="url(#paint2_linear)"/>
<ellipse rx="20.7025" ry="20.3929" transform="matrix(0.94101 0.33838 -0.305558 0.952173 911.438 381.405)" fill="url(#paint3_linear)"/>
<ellipse rx="10.3512" ry="10.1965" transform="matrix(0.94101 0.33838 -0.305558 0.952173 109.856 144.211)" fill="url(#paint4_linear)"/>
<ellipse rx="16.4679" ry="16.2217" transform="matrix(0.94101 0.33838 -0.305558 0.952173 1171.45 218.018)" fill="url(#paint5_linear)"/>
<defs>
<linearGradient id="paint0_linear" x1="0" y1="0" x2="442.962" y2="799.455" gradientUnits="userSpaceOnUse">
<stop stop-color="#179CE6"/>
<stop offset="1" stop-color="#8BCEF3"/>
</linearGradient>
<linearGradient id="paint1_linear" x1="0" y1="0" x2="32.4396" y2="32.932" gradientUnits="userSpaceOnUse">
<stop offset="0.21875" stop-color="#74C4F1"/>
<stop offset="0.885417" stop-color="#179CE6"/>
</linearGradient>
<linearGradient id="paint2_linear" x1="0" y1="0" x2="78.782" y2="79.9778" gradientUnits="userSpaceOnUse">
<stop offset="0.21875" stop-color="#74C4F1"/>
<stop offset="0.885417" stop-color="#179CE6"/>
</linearGradient>
<linearGradient id="paint3_linear" x1="0" y1="0" x2="40.7813" y2="41.4003" gradientUnits="userSpaceOnUse">
<stop offset="0.21875" stop-color="#74C4F1"/>
<stop offset="0.885417" stop-color="#179CE6"/>
</linearGradient>
<linearGradient id="paint4_linear" x1="0" y1="0" x2="20.3906" y2="20.7001" gradientUnits="userSpaceOnUse">
<stop offset="0.21875" stop-color="#74C4F1"/>
<stop offset="0.885417" stop-color="#179CE6"/>
</linearGradient>
<linearGradient id="paint5_linear" x1="0" y1="0" x2="32.4396" y2="32.932" gradientUnits="userSpaceOnUse">
<stop offset="0.21875" stop-color="#74C4F1"/>
<stop offset="0.885417" stop-color="#179CE6"/>
</linearGradient>
</defs>
</svg>
