<svg width="24" height="24" viewBox="0 0 24 24" fill="none" xmlns="http://www.w3.org/2000/svg">
<path d="M10.4997 3.00084C9.35516 3.00084 8.28716 3.32034 7.37666 3.87684C7.28256 3.37346 7.11102 2.8877 6.86816 2.43684C8.01011 1.80489 9.29719 1.48188 10.6022 1.49972C11.9072 1.51757 13.185 1.87566 14.3092 2.53859C15.4335 3.20153 16.3653 4.14637 17.0125 5.27972C17.6597 6.41307 18 7.6957 17.9997 9.00084H21.7512C22.3476 9.00124 22.9195 9.23847 23.3412 9.66038C23.7628 10.0823 23.9997 10.6544 23.9997 11.2508V20.2508C23.9997 20.8476 23.7626 21.4199 23.3407 21.8418C22.9187 22.2638 22.3464 22.5008 21.7497 22.5008H12.7497C12.1529 22.5008 11.5806 22.2638 11.1587 21.8418C10.7367 21.4199 10.4997 20.8476 10.4997 20.2508V16.5008C9.45624 16.5022 8.4241 16.285 7.46966 15.8633C7.48916 15.3533 7.49966 14.8178 7.49966 14.2508V14.1983C8.38166 14.7083 9.40616 15.0008 10.4997 15.0008V11.2508C10.4997 10.6541 10.7367 10.0818 11.1587 9.65985C11.5806 9.2379 12.1529 9.00084 12.7497 9.00084H16.4997C16.4997 7.40955 15.8675 5.88342 14.7423 4.7582C13.6171 3.63298 12.091 3.00084 10.4997 3.00084ZM17.8497 10.5008C17.5546 11.9417 16.8429 13.2642 15.803 14.3042C14.763 15.3441 13.4405 16.0558 11.9997 16.3508V20.2508C11.9997 20.4498 12.0787 20.6405 12.2193 20.7812C12.36 20.9218 12.5508 21.0008 12.7497 21.0008H21.7497C21.9486 21.0008 22.1393 20.9218 22.28 20.7812C22.4206 20.6405 22.4997 20.4498 22.4997 20.2508V11.2508C22.4997 11.0519 22.4206 10.8612 22.28 10.7205C22.1393 10.5799 21.9486 10.5008 21.7497 10.5008H17.8497ZM16.3107 10.5008H12.7497C12.5508 10.5008 12.36 10.5799 12.2193 10.7205C12.0787 10.8612 11.9997 11.0519 11.9997 11.2508V14.8118C13.0374 14.543 13.9843 14.0015 14.7423 13.2435C15.5003 12.4855 16.0418 11.5386 16.3107 10.5008Z" fill="white"/>
<path d="M3.87 0.18744C3.99476 0.296153 4.08005 0.443074 4.11261 0.605316C4.14517 0.767558 4.12315 0.936012 4.05 1.08444C4.0373 1.12832 4.03074 1.17376 4.0305 1.21944C4.0305 1.31394 4.0545 1.49394 4.281 1.71894C4.3905 1.82844 4.4745 1.90644 4.566 1.99194C4.641 2.06094 4.7205 2.13294 4.821 2.23194C5.016 2.41794 5.2215 2.63694 5.406 2.91144C5.7885 3.48594 6 4.20444 6 5.24994C6 6.52944 5.526 7.61994 4.7865 8.28894L4.8825 8.39994C5.3025 8.91594 5.547 9.58494 5.7 10.2449C6 11.5499 6 13.1189 6 14.2124V14.2499C6 18.4304 5.4315 20.8019 4.806 22.1579C4.491 22.8404 4.1565 23.2754 3.867 23.5484C3.7493 23.6614 3.61952 23.761 3.48 23.8454C3.41612 23.8839 3.34943 23.9175 3.2805 23.9459C3.2805 23.9459 3.111 23.9999 3 23.9999C2.889 23.9999 2.7195 23.9459 2.7195 23.9459C2.64982 23.9192 2.58299 23.8855 2.52 23.8454C2.38048 23.761 2.2507 23.6614 2.133 23.5484C1.8435 23.2739 1.509 22.8404 1.194 22.1579C0.5685 20.8019 0 18.4304 0 14.2499V14.2124C0 13.1174 6.70552e-08 11.5499 0.3 10.2449C0.453 9.58494 0.6975 8.91594 1.1175 8.39994C1.1475 8.36244 1.1805 8.32494 1.2135 8.28894C0.474 7.61994 0 6.52944 0 5.24994C0 4.76094 0.1305 4.17744 0.3105 3.63894C0.4905 3.09894 0.7425 2.54094 1.0335 2.09094C1.38 1.50594 1.8675 1.01544 2.2455 0.68544C2.45274 0.503184 2.66901 0.331467 2.8935 0.17094L2.9385 0.14094L2.952 0.13044L2.9565 0.12744L2.9595 0.12594C3.09704 0.034255 3.26103 -0.00942162 3.42595 0.00170008C3.59088 0.0128218 3.74751 0.0781185 3.8715 0.18744H3.87ZM3.0045 7.49994C3.579 7.49844 4.5 6.85494 4.5 5.24994C4.5 4.42044 4.3365 4.01394 4.1565 3.74394C4.04706 3.58624 3.92082 3.44089 3.78 3.31044L3.594 3.13644C3.4725 3.02244 3.33 2.89044 3.219 2.78094C3.05494 2.61859 2.91411 2.43435 2.8005 2.23344C2.60957 2.4342 2.44153 2.65556 2.2995 2.89344C2.0895 3.21594 1.8855 3.65844 1.734 4.11444C1.578 4.57944 1.5 4.99044 1.5 5.24994C1.5 6.85794 2.4225 7.49994 3 7.49994H3.003H3.0045ZM2.28 9.34794C2.0685 9.60744 1.89 10.0214 1.7625 10.5824C1.503 11.7044 1.5 13.1144 1.5 14.2499C1.5 18.3194 2.0565 20.4479 2.556 21.5294C2.721 21.8849 2.8755 22.1219 3 22.2794C3.1245 22.1219 3.2805 21.8849 3.444 21.5294C3.9435 20.4479 4.5 18.3194 4.5 14.2499C4.5 13.1144 4.497 11.7044 4.2375 10.5824C4.1085 10.0214 3.9315 9.60744 3.72 9.34794C3.63726 9.23583 3.52847 9.14556 3.40302 9.08493C3.27758 9.0243 3.13925 8.99513 3 8.99994H2.997C2.85823 8.99549 2.72046 9.02484 2.59556 9.08546C2.47065 9.14609 2.36236 9.23617 2.28 9.34794Z" fill="white"/>
</svg>
