<svg width="51" height="51" viewBox="0 0 51 51" fill="none" xmlns="http://www.w3.org/2000/svg">
<path d="M50.5515 8.61151L42.3882 0.448248C42.2461 0.306136 42.0774 0.193407 41.8917 0.116496C41.7061 0.0395855 41.5071 0 41.3061 0C41.1051 0 40.9061 0.0395855 40.7204 0.116496C40.5348 0.193407 40.3661 0.306136 40.2239 0.448248L15.7342 24.938C15.592 25.0801 15.4792 25.2489 15.4022 25.4346C15.3253 25.6203 15.2857 25.8194 15.2857 26.0204V34.1837C15.2857 34.5896 15.447 34.9789 15.734 35.266C16.0211 35.553 16.4104 35.7143 16.8163 35.7143H24.9796C25.1805 35.7143 25.3795 35.6747 25.5652 35.5978C25.7509 35.5209 25.9196 35.4082 26.0617 35.2661L50.5515 10.7763C50.6937 10.6342 50.8065 10.4654 50.8834 10.2797C50.9604 10.094 51 9.89494 51 9.6939C51 9.49287 50.9604 9.29381 50.8834 9.10809C50.8065 8.92236 50.6937 8.75362 50.5515 8.61151ZM24.3456 32.6531H18.3469V26.6544L35.1837 9.81763L41.1824 15.8163L24.3456 32.6531ZM43.3469 13.6518L37.3482 7.65309L41.3061 3.69518L47.3048 9.6939L43.3469 13.6518ZM48.9591 23.9796V46.4286C48.9581 47.3754 48.5814 48.2832 47.9119 48.9528C47.2424 49.6223 46.3346 49.9989 45.3877 50H4.57143C3.62456 49.9989 2.71678 49.6223 2.04724 48.9528C1.3777 48.2832 1.00108 47.3754 1 46.4286V5.61228C1.00108 4.66541 1.3777 3.75763 2.04724 3.08809C2.71678 2.41855 3.62456 2.04193 4.57143 2.04085H27.0204C27.4263 2.04085 27.8157 2.20211 28.1027 2.48915C28.3897 2.7762 28.551 3.16552 28.551 3.57146C28.551 3.9774 28.3897 4.36672 28.1027 4.65377C27.8157 4.94081 27.4263 5.10207 27.0204 5.10207H4.57143C4.43615 5.10221 4.30646 5.156 4.21081 5.25166C4.11515 5.34731 4.06136 5.477 4.06122 5.61228V46.4286C4.06136 46.5638 4.11515 46.6935 4.21081 46.7892C4.30646 46.8848 4.43615 46.9386 4.57143 46.9388H45.3877C45.523 46.9386 45.6527 46.8848 45.7483 46.7892C45.844 46.6935 45.8978 46.5638 45.8979 46.4286V23.9796C45.8979 23.5737 46.0592 23.1843 46.3462 22.8973C46.6333 22.6103 47.0226 22.449 47.4285 22.449C47.8345 22.449 48.2238 22.6103 48.5108 22.8973C48.7979 23.1843 48.9591 23.5737 48.9591 23.9796Z" fill="#0ECD9D"/>
<path d="M28.5 3.5H2.5V48.5H47.5V22.5" stroke="#444444" stroke-width="3.25" stroke-linejoin="round"/>
</svg>
