<svg width="24" height="24" viewBox="0 0 24 24" fill="none" xmlns="http://www.w3.org/2000/svg">
<path d="M9.42857 11.1429C10.7014 11.1429 11.6177 12.426 12.588 13.7837C13.7126 15.3583 14.988 17.1429 17.1429 17.1429C22.0029 17.1429 23.8114 7.89429 24 6.85714L22.3131 6.55029C21.9 8.81314 20.052 15.4286 17.1429 15.4286C15.87 15.4286 14.9537 14.1454 13.9834 12.7877C12.8589 11.2131 11.5834 9.42857 9.42857 9.42857C5.84057 9.42857 3.04714 15.7749 1.71429 19.5103V0H0V22.2857C0.000453837 22.7402 0.181211 23.176 0.502604 23.4974C0.823996 23.8188 1.25977 23.9995 1.71429 24H24V22.2857H2.60914C3.90343 17.8774 6.82629 11.1429 9.42857 11.1429Z" fill="#179CE6"/>
</svg>
