<svg width="50" height="50" viewBox="0 0 50 50" fill="none" xmlns="http://www.w3.org/2000/svg">
<path d="M26.2797 50C19.2406 50 12.6358 47.2717 7.68195 42.3181C2.72809 37.3644 6.15466e-07 30.7593 6.15466e-07 23.7201C-0.0010502 18.8641 1.34351 14.1029 3.88445 9.96476C6.42538 5.82665 10.0633 2.47358 14.3944 0.277707C14.84 0.0505622 15.3426 -0.0403063 15.8395 0.0164444C16.3364 0.0731951 16.8056 0.275051 17.1885 0.596814C17.5714 0.918577 17.8511 1.34599 17.9926 1.82571C18.134 2.30542 18.1311 2.81618 17.9841 3.29423C16.7482 7.2862 16.6267 11.54 17.6328 15.596C18.6389 19.652 20.7343 23.3559 23.6925 26.3075C25.8155 28.4463 28.3416 30.1426 31.1245 31.2985C33.9075 32.4544 36.8922 33.0467 39.9056 33.0413C42.2109 33.0431 44.5033 32.6973 46.7055 32.0157C47.1836 31.8686 47.6944 31.8655 48.1741 32.007C48.6539 32.1484 49.0814 32.4281 49.4032 32.811C49.725 33.194 49.9269 33.6632 49.9836 34.1602C50.0403 34.6572 49.9494 35.1598 49.7221 35.6054C47.5262 39.9365 44.1731 43.5745 40.035 46.1154C35.8969 48.6564 31.1357 50.001 26.2797 50V50ZM14.3035 4.14289C10.9449 6.18635 8.17057 9.06198 6.24879 12.4916C4.32701 15.9212 3.32284 19.7887 3.33341 23.7201C3.33341 36.3727 13.627 46.6666 26.2797 46.6666C30.211 46.6772 34.0786 45.673 37.5083 43.7513C40.9379 41.8295 43.8135 39.0551 45.857 35.6966C43.9055 36.1482 41.9089 36.3758 39.9058 36.375C36.4545 36.3816 33.0361 35.7035 29.8485 34.3801C26.6609 33.0566 23.7676 31.1141 21.3358 28.6649C18.1767 25.5118 15.8733 21.6057 14.6428 17.3152C13.4124 13.0248 13.2956 8.49161 14.3035 4.14352V4.14289Z" fill="black"/>
</svg>
