<svg width="37" height="37" viewBox="0 0 37 37" fill="none" xmlns="http://www.w3.org/2000/svg">
<g clip-path="url(#clip0_374:1517)">
<path d="M33.0418 11.4474C33.0645 11.7657 33.0645 12.084 33.0645 12.4023C33.0645 22.1109 25.6751 33.2975 12.1693 33.2975C8.00847 33.2975 4.14323 32.0924 0.891846 30.0007C1.48303 30.0689 2.05139 30.0916 2.66532 30.0916C6.09853 30.0916 9.259 28.9321 11.7828 26.954C8.55416 26.8857 5.84846 24.7712 4.91624 21.8609C5.37101 21.929 5.82572 21.9745 6.30324 21.9745C6.96259 21.9745 7.622 21.8835 8.23586 21.7245C4.87082 21.0423 2.34694 18.0865 2.34694 14.5169V14.4259C3.32459 14.9716 4.46153 15.3127 5.6665 15.3581C3.68839 14.0393 2.39244 11.7884 2.39244 9.24187C2.39244 7.87768 2.75616 6.62715 3.39283 5.53578C7.00801 9.9922 12.4421 12.9025 18.5356 13.2208C18.4219 12.6751 18.3537 12.1068 18.3537 11.5384C18.3537 7.49114 21.6278 4.19434 25.6977 4.19434C27.8122 4.19434 29.7221 5.08107 31.0636 6.51349C32.7233 6.19519 34.3149 5.58127 35.7246 4.74002C35.1789 6.44533 34.0193 7.87775 32.496 8.78716C33.9739 8.62808 35.4063 8.21873 36.725 7.65036C35.7248 9.10546 34.4742 10.4014 33.0418 11.4474Z" fill="white"/>
</g>
<defs>
<clipPath id="clip0_374:1517">
<rect width="35.8333" height="35.8333" fill="white" transform="translate(0.891846 0.830078)"/>
</clipPath>
</defs>
</svg>
