<svg width="25" height="25" viewBox="0 0 25 25" fill="none" xmlns="http://www.w3.org/2000/svg">
<path d="M24.7847 4.13352L20.8664 0.215159C20.7981 0.146945 20.7172 0.0928352 20.628 0.0559181C20.5389 0.019001 20.4434 0 20.3469 0C20.2505 0 20.1549 0.019001 20.0658 0.0559181C19.9767 0.0928352 19.8957 0.146945 19.8275 0.215159L8.0724 11.9703C8.00415 12.0385 7.95 12.1195 7.91306 12.2086C7.87613 12.2978 7.85712 12.3933 7.85714 12.4898V16.4082C7.85714 16.603 7.93454 16.7899 8.07233 16.9277C8.21011 17.0655 8.39698 17.1429 8.59183 17.1429H12.5102C12.6067 17.1429 12.7022 17.1239 12.7913 17.087C12.8804 17.05 12.9614 16.9959 13.0296 16.9277L24.7847 5.17262C24.853 5.10441 24.9071 5.02341 24.944 4.93427C24.981 4.84512 25 4.74957 25 4.65307C25 4.55658 24.981 4.46103 24.944 4.37188C24.9071 4.28273 24.853 4.20174 24.7847 4.13352ZM12.2059 15.6735H9.32652V12.7941L17.4082 4.71246L20.2875 7.59185L12.2059 15.6735ZM21.3265 6.55287L18.4471 3.67348L20.3469 1.77369L23.2263 4.65307L21.3265 6.55287ZM24.0204 11.5102V22.2857C24.0199 22.7402 23.8391 23.1759 23.5177 23.4973C23.1963 23.8187 22.7606 23.9995 22.3061 24H2.71428C2.25979 23.9995 1.82405 23.8187 1.50268 23.4973C1.1813 23.1759 1.00052 22.7402 1 22.2857V2.69389C1.00052 2.23939 1.1813 1.80366 1.50268 1.48228C1.82405 1.1609 2.25979 0.980126 2.71428 0.979607H13.4898C13.6846 0.979607 13.8715 1.05701 14.0093 1.19479C14.1471 1.33258 14.2245 1.51945 14.2245 1.7143C14.2245 1.90915 14.1471 2.09603 14.0093 2.23381C13.8715 2.37159 13.6846 2.44899 13.4898 2.44899H2.71428C2.64935 2.44906 2.5871 2.47488 2.54119 2.52079C2.49527 2.56671 2.46945 2.62896 2.46939 2.69389V22.2857C2.46945 22.3506 2.49527 22.4129 2.54119 22.4588C2.5871 22.5047 2.64935 22.5305 2.71428 22.5306H22.3061C22.371 22.5305 22.4333 22.5047 22.4792 22.4588C22.5251 22.4129 22.5509 22.3506 22.551 22.2857V11.5102C22.551 11.3154 22.6284 11.1285 22.7662 10.9907C22.904 10.8529 23.0908 10.7755 23.2857 10.7755C23.4806 10.7755 23.6674 10.8529 23.8052 10.9907C23.943 11.1285 24.0204 11.3154 24.0204 11.5102Z" fill="#179CE6"/>
<path d="M14.2 1.67969H1.71997V23.2797H23.32V10.7997" stroke="#179CE6" stroke-width="2.75" stroke-linejoin="round"/>
</svg>
