<svg width="18" height="27" viewBox="0 0 18 27" fill="none" xmlns="http://www.w3.org/2000/svg">
<path d="M11.625 12.5004C11.625 12.0047 11.4848 11.5192 11.2204 11.1C10.9561 10.6807 10.5784 10.3449 10.1312 10.1313C9.68397 9.91775 9.1854 9.83514 8.69317 9.89308C8.20095 9.95101 7.73518 10.1471 7.34975 10.4587H7.97917C8.0952 10.4587 8.20648 10.5048 8.28852 10.5868C8.37057 10.6689 8.41666 10.7802 8.41666 10.8962C8.41666 11.0122 8.37057 11.1235 8.28852 11.2055C8.20648 11.2876 8.0952 11.3337 7.97917 11.3337H6.52083C6.4048 11.3337 6.29352 11.2876 6.21147 11.2055C6.12943 11.1235 6.08333 11.0122 6.08333 10.8962V9.43785C6.08333 9.32182 6.12943 9.21054 6.21147 9.12849C6.29352 9.04645 6.4048 9.00035 6.52083 9.00035C6.63686 9.00035 6.74814 9.04645 6.83019 9.12849C6.91224 9.21054 6.95833 9.32182 6.95833 9.43785V9.65719C7.5962 9.19908 8.3696 8.96881 9.15417 9.0034C9.93873 9.03799 10.6889 9.33544 11.2839 9.84791C11.879 10.3604 12.2844 11.0581 12.435 11.8288C12.5856 12.5996 12.4726 13.3986 12.1142 14.0974C11.7558 14.7961 11.1728 15.3541 10.459 15.6814C9.74511 16.0088 8.94191 16.0866 8.17852 15.9022C7.41513 15.7179 6.73592 15.2822 6.25009 14.6652C5.76427 14.0482 5.50008 13.2857 5.5 12.5004C5.5 12.3843 5.54609 12.273 5.62814 12.191C5.71019 12.1089 5.82147 12.0629 5.9375 12.0629C6.05353 12.0629 6.16481 12.1089 6.24686 12.191C6.32891 12.273 6.375 12.3843 6.375 12.5004C6.375 13.1965 6.65156 13.8642 7.14384 14.3565C7.63613 14.8488 8.3038 15.1253 9 15.1253C9.69619 15.1253 10.3639 14.8488 10.8562 14.3565C11.3484 13.8642 11.625 13.1965 11.625 12.5004V12.5004Z" fill="#179CE6"/>
<path d="M13.6667 2H4.33333C3.04467 2 2 3.04467 2 4.33333V23C2 24.2887 3.04467 25.3333 4.33333 25.3333H13.6667C14.9553 25.3333 16 24.2887 16 23V4.33333C16 3.04467 14.9553 2 13.6667 2Z" stroke="#179CE6" stroke-width="2.33333" stroke-linecap="round" stroke-linejoin="round"/>
<path d="M8.94189 20.666H9.05856" stroke="#179CE6" stroke-width="2.33333" stroke-linecap="round" stroke-linejoin="round"/>
</svg>
