<svg width="24" height="23" viewBox="0 0 24 23" fill="none" xmlns="http://www.w3.org/2000/svg">
<path d="M2.78571 0C2.0469 0 1.33834 0.293494 0.815917 0.815917C0.293494 1.33834 0 2.0469 0 2.78571V16.0714C0 16.8102 0.293494 17.5188 0.815917 18.0412C1.33834 18.5637 2.0469 18.8571 2.78571 18.8571H8.58V20.5723H6.01029C5.8955 20.5687 5.78116 20.5881 5.67404 20.6295C5.56693 20.671 5.46923 20.7335 5.38675 20.8134C5.30427 20.8933 5.23869 20.989 5.19391 21.0947C5.14912 21.2005 5.12604 21.3142 5.12604 21.429C5.12604 21.5438 5.14912 21.6575 5.19391 21.7633C5.23869 21.869 5.30427 21.9647 5.38675 22.0446C5.46923 22.1245 5.56693 22.187 5.67404 22.2285C5.78116 22.2699 5.8955 22.2893 6.01029 22.2857H18.0034C18.1182 22.2893 18.2326 22.2699 18.3397 22.2285C18.4468 22.187 18.5445 22.1245 18.627 22.0446C18.7094 21.9647 18.775 21.869 18.8198 21.7633C18.8646 21.6575 18.8877 21.5438 18.8877 21.429C18.8877 21.3142 18.8646 21.2005 18.8198 21.0947C18.775 20.989 18.7094 20.8933 18.627 20.8134C18.5445 20.7335 18.4468 20.671 18.3397 20.6295C18.2326 20.5881 18.1182 20.5687 18.0034 20.5723H15.4337V18.8571H21.2143C21.9531 18.8571 22.6617 18.5637 23.1841 18.0412C23.7065 17.5188 24 16.8102 24 16.0714V2.78571C24 2.0469 23.7065 1.33834 23.1841 0.815917C22.6617 0.293494 21.9531 0 21.2143 0H2.78571ZM13.7194 18.8571V20.5723H10.2943V18.8571H13.7194ZM1.71429 2.78571C1.71429 2.19429 2.19429 1.71429 2.78571 1.71429H21.2143C21.8057 1.71429 22.2857 2.19429 22.2857 2.78571V16.0714C22.2857 16.6629 21.8057 17.1429 21.2143 17.1429H2.78571C2.19429 17.1429 1.71429 16.6629 1.71429 16.0714V2.78571Z" fill="#179CE6"/>
<rect x="9" y="4" width="11" height="1" fill="#179CE6"/>
<rect x="9" y="6" width="11" height="1" fill="#179CE6"/>
<rect x="4" y="8" width="16" height="1" fill="#179CE6"/>
<rect x="4" y="10" width="16" height="1" fill="#179CE6"/>
<rect x="5" y="13" width="15" height="1" fill="#179CE6"/>
<rect x="4" y="15" width="16" height="1" fill="#179CE6"/>
<rect x="4" y="4" width="4" height="3" fill="#179CE6"/>
</svg>
