<svg width="16" height="16" viewBox="0 0 16 16" fill="none" xmlns="http://www.w3.org/2000/svg">
<path d="M7.99974 0C5.88646 0.0269505 3.86731 0.878431 2.37287 2.37287C0.878431 3.86731 0.0269505 5.88646 0 7.99974C0.00987878 9.23083 0.303767 10.443 0.858781 11.542C1.4138 12.6409 2.21496 13.5969 3.1999 14.3355V14.3995H3.27989C4.6344 15.4375 6.29328 16 7.99974 16C9.70621 16 11.3651 15.4375 12.7196 14.3995H12.7996V14.3355C13.7845 13.5969 14.5857 12.6409 15.1407 11.542C15.6957 10.443 15.9896 9.23083 15.9995 7.99974C15.9725 5.88646 15.1211 3.86731 13.6266 2.37287C12.1322 0.878431 10.113 0.0269505 7.99974 0ZM4.85584 13.5436C4.97263 13.0087 5.26875 12.5299 5.69508 12.1865C6.12142 11.8431 6.65234 11.6558 7.19977 11.6556H8.79972C9.34715 11.6558 9.87807 11.8431 10.3044 12.1865C10.7307 12.5299 11.0269 13.0087 11.1436 13.5436C10.1908 14.1042 9.10531 14.3998 7.99974 14.3998C6.89417 14.3998 5.80872 14.1042 4.85584 13.5436ZM12.4876 12.5116C12.1833 11.7844 11.6709 11.1633 11.0148 10.7263C10.3586 10.2894 9.58803 10.0561 8.79972 10.0557H7.19977C6.41145 10.0561 5.64083 10.2894 4.9847 10.7263C4.32857 11.1633 3.81617 11.7844 3.51189 12.5116C2.91244 11.922 2.43504 11.2201 2.10698 10.4459C1.77892 9.67174 1.60663 8.84052 1.59995 7.99974C1.6207 6.30886 2.30162 4.69307 3.49735 3.49735C4.69307 2.30162 6.30886 1.6207 7.99974 1.59995C9.69063 1.6207 11.3064 2.30162 12.5021 3.49735C13.6979 4.69307 14.3788 6.30886 14.3995 7.99974C14.3929 8.84052 14.2206 9.67174 13.8925 10.4459C13.5644 11.2201 13.087 11.922 12.4876 12.5116Z" fill="white"/>
<path d="M7.99957 3.19909C7.57666 3.18924 7.15615 3.26527 6.76347 3.4226C6.37078 3.57992 6.01409 3.81526 5.71497 4.11438C5.41584 4.41351 5.1805 4.7702 5.02318 5.16288C4.86586 5.55556 4.78982 5.97608 4.79968 6.39899C4.78982 6.8219 4.86586 7.24241 5.02318 7.63509C5.1805 8.02778 5.41584 8.38447 5.71497 8.68359C6.01409 8.98272 6.37078 9.21806 6.76347 9.37538C7.15615 9.5327 7.57666 9.60874 7.99957 9.59888C8.42248 9.60874 8.843 9.5327 9.23568 9.37538C9.62836 9.21806 9.98505 8.98272 10.2842 8.68359C10.5833 8.38447 10.8186 8.02778 10.976 7.63509C11.1333 7.24241 11.2093 6.8219 11.1995 6.39899C11.2093 5.97608 11.1333 5.55556 10.976 5.16288C10.8186 4.7702 10.5833 4.41351 10.2842 4.11438C9.98505 3.81526 9.62836 3.57992 9.23568 3.4226C8.843 3.26527 8.42248 3.18924 7.99957 3.19909ZM7.99957 7.99894C7.78674 8.00922 7.57411 7.97488 7.37533 7.89812C7.17656 7.82135 6.99604 7.70386 6.84537 7.55319C6.6947 7.40252 6.57721 7.222 6.50044 7.02323C6.42368 6.82445 6.38934 6.61182 6.39962 6.39899C6.38934 6.18615 6.42368 5.97352 6.50044 5.77475C6.57721 5.57597 6.6947 5.39545 6.84537 5.24478C6.99604 5.09411 7.17656 4.97662 7.37533 4.89985C7.57411 4.82309 7.78674 4.78875 7.99957 4.79904C8.21241 4.78875 8.42504 4.82309 8.62381 4.89985C8.82259 4.97662 9.00311 5.09411 9.15378 5.24478C9.30445 5.39545 9.42194 5.57597 9.4987 5.77475C9.57547 5.97352 9.60981 6.18615 9.59952 6.39899C9.60981 6.61182 9.57547 6.82445 9.4987 7.02323C9.42194 7.222 9.30445 7.40252 9.15378 7.55319C9.00311 7.70386 8.82259 7.82135 8.62381 7.89812C8.42504 7.97488 8.21241 8.00922 7.99957 7.99894Z" fill="white"/>
</svg>
