<svg width="23" height="26" viewBox="0 0 23 26" fill="none" xmlns="http://www.w3.org/2000/svg">
<path d="M10.361 2.30244C5.87123 2.30244 2.30244 5.87123 2.30244 10.361C2.30244 13.5844 4.1444 16.3473 6.90733 17.6137V23.0244H14.9659V19.5708H16.1171C17.3834 19.5708 18.4195 18.5347 18.4195 17.2683V13.8147H20.1464C20.6069 13.8147 20.9522 13.239 20.6069 12.8937L18.4195 10.0156C18.1893 5.64099 14.7356 2.30244 10.361 2.30244ZM10.361 0C15.6566 0 20.0313 3.91415 20.6069 9.09465L22.4488 11.5122C23.1396 12.4332 23.1396 13.5844 22.6791 14.5054C22.2186 15.3112 21.5278 15.8869 20.722 16.002V17.2683C20.722 19.4556 19.2254 21.1825 17.2683 21.7581V25.3269H4.60489V18.9952C1.72683 17.0381 -3.89751e-07 13.9298 -3.89751e-07 10.361C-3.89751e-07 4.60489 4.60489 0 10.361 0ZM9.20977 14.9659H11.5122V13.8147H9.20977V14.9659ZM7.36782 9.78538C7.71318 10.2459 8.05855 10.7064 8.63416 11.0517V12.6634H12.0878V11.0517C13.6995 10.1308 14.2751 7.94343 13.3542 6.33172C12.4332 4.72001 10.2459 4.1444 8.63416 5.06538C7.02245 5.98635 6.44684 8.17367 7.36782 9.78538Z" fill="#179CE6"/>
</svg>
