<svg width="35" height="25" viewBox="0 0 35 25" fill="none" xmlns="http://www.w3.org/2000/svg">
<path d="M6.70797 1.39243e-06H30.847C31.78 -0.000827997 32.6751 0.368887 33.3355 1.02786C33.996 1.68683 34.3677 2.5811 34.3689 3.51406V21.4859C34.3689 21.9475 34.278 22.4046 34.1013 22.8311C33.9246 23.2575 33.6656 23.645 33.3391 23.9713C33.0126 24.2976 32.6251 24.5564 32.1985 24.733C31.772 24.9095 31.3149 25.0002 30.8533 25H6.63453C5.7024 25 4.80842 24.6298 4.14916 23.9708C3.4899 23.3119 3.11932 22.4181 3.1189 21.4859V10.225C3.21734 10.3406 3.32672 10.4453 3.44703 10.5375C3.73914 10.7367 4.07563 10.8612 4.42703 10.9001C4.77842 10.9391 5.13401 10.8913 5.46265 10.7609V21.4812C5.46265 21.792 5.58612 22.0901 5.80589 22.3099C6.02566 22.5297 6.32373 22.6531 6.63453 22.6531H10.9298V18.3516C10.9299 17.6652 11.1883 17.0041 11.6535 16.4995C12.1187 15.9949 12.7567 15.6838 13.4408 15.6281L13.6642 15.6187H23.8127C24.4989 15.6188 25.16 15.8768 25.6648 16.3417C26.1696 16.8065 26.4812 17.4442 26.5377 18.1281L26.547 18.3516V22.6469H30.847C31.1578 22.6469 31.4559 22.5234 31.6757 22.3036C31.8954 22.0839 32.0189 21.7858 32.0189 21.475V3.51406C32.0189 3.20326 31.8954 2.90519 31.6757 2.68542C31.4559 2.46565 31.1578 2.34219 30.847 2.34219H8.45953L8.02047 2.20156C7.81588 2.13387 7.62979 2.01961 7.47687 1.86777C7.32395 1.71593 7.20836 1.53067 7.13922 1.32656L6.70797 1.39243e-06ZM13.2658 22.6469H24.2033L24.1955 18.35C24.195 18.2623 24.1649 18.1772 24.1102 18.1087C24.0555 18.0401 23.9793 17.9919 23.8939 17.9719L23.8048 17.9609H13.6564C13.5684 17.9611 13.483 17.9909 13.4141 18.0457C13.3452 18.1004 13.2968 18.1768 13.2767 18.2625L13.2658 18.3516V22.6469ZM22.058 6.05938C22.8261 6.82568 23.3044 7.83486 23.4112 8.9146C23.518 9.99434 23.2466 11.0777 22.6435 11.9796C22.0404 12.8815 21.1429 13.5461 20.1042 13.8599C19.0656 14.1737 17.9502 14.1171 16.9486 13.7C16.0932 13.3449 15.3621 12.7446 14.8474 11.9746C14.3328 11.2047 14.0575 10.2996 14.0564 9.37344C14.0562 8.75788 14.1773 8.14832 14.4128 7.5796C14.6483 7.01088 14.9936 6.49416 15.429 6.05897C15.8643 5.62378 16.3812 5.27865 16.9499 5.04333C17.5187 4.808 18.1283 4.68709 18.7439 4.6875C19.9868 4.68735 21.1788 5.18081 22.058 6.05938V6.05938ZM17.0861 7.71562C16.8686 7.93313 16.6961 8.19134 16.5783 8.47552C16.4606 8.7597 16.4 9.06428 16.4 9.37188C16.4 9.67947 16.4606 9.98405 16.5783 10.2682C16.6961 10.5524 16.8686 10.8106 17.0861 11.0281C17.3036 11.2456 17.5618 11.4182 17.846 11.5359C18.1302 11.6536 18.4347 11.7142 18.7423 11.7142C19.0499 11.7142 19.3545 11.6536 19.6387 11.5359C19.9229 11.4182 20.1811 11.2456 20.3986 11.0281C20.8379 10.5889 21.0846 9.99309 21.0846 9.37188C21.0846 8.75066 20.8379 8.15489 20.3986 7.71562C19.9593 7.27636 19.3636 7.02958 18.7423 7.02958C18.1211 7.02958 17.5254 7.27636 17.0861 7.71562V7.71562ZM3.68297 7.55938L4.15172 8.99219C4.18956 9.09993 4.25905 9.19374 4.35109 9.26134C4.44313 9.32894 4.55343 9.36719 4.66756 9.37107C4.78169 9.37495 4.89434 9.34429 4.99076 9.2831C5.08718 9.22192 5.16288 9.13305 5.20797 9.02812L5.22047 8.99219L5.68922 7.56094C5.83421 7.12479 6.0791 6.72856 6.40436 6.40384C6.72963 6.07912 7.12627 5.83489 7.56265 5.69063L8.99703 5.22188C9.10735 5.18262 9.20283 5.11019 9.27034 5.01451C9.33785 4.91883 9.3741 4.8046 9.3741 4.6875C9.3741 4.5704 9.33785 4.45617 9.27034 4.36049C9.20283 4.26481 9.10735 4.19238 8.99703 4.15313H8.9689L7.53297 3.68438C7.09652 3.54056 6.69984 3.29647 6.37477 2.97166C6.0497 2.64686 5.80527 2.25039 5.66109 1.81406L5.19234 0.379689C5.1628 0.297253 5.11463 0.222751 5.05157 0.161989C4.98852 0.101227 4.91228 0.0558456 4.82881 0.029382C4.74533 0.00291839 4.65687 -0.00391287 4.57033 0.00942042C4.48378 0.0227537 4.40148 0.0558912 4.32984 0.106251C4.23463 0.174039 4.16261 0.269516 4.12359 0.379689L3.65484 1.8125L3.6439 1.84844C3.4981 2.27367 3.25724 2.66005 2.93964 2.97819C2.62204 3.29633 2.23607 3.53785 1.81109 3.68438L0.375155 4.15313C0.293205 4.18279 0.219169 4.2309 0.158763 4.29372C0.098358 4.35655 0.0531991 4.43241 0.0267735 4.51547C0.000347974 4.59852 -0.00663725 4.68653 0.0063572 4.77271C0.0193516 4.85889 0.0519781 4.94093 0.101717 5.0125C0.168731 5.10916 0.26436 5.18239 0.375155 5.22188L1.81109 5.69063C2.24649 5.83639 2.64213 6.08116 2.96694 6.40569C3.29174 6.73022 3.53684 7.12567 3.68297 7.56094V7.55938ZM7.63609 10.2313L8.47359 9.95781C8.85542 9.82547 9.17956 9.56484 9.39078 9.22031C9.45484 9.10938 9.50797 8.99063 9.54703 8.86719L9.8189 8.02969C9.83524 7.98629 9.86032 7.9467 9.89257 7.91337C9.92482 7.88005 9.96356 7.85369 10.0064 7.83594C10.0579 7.81494 10.1139 7.80736 10.1691 7.81392C10.2243 7.82048 10.2769 7.84096 10.322 7.87344C10.3769 7.91362 10.4187 7.96904 10.4423 8.03281L10.7142 8.87031C10.7987 9.12489 10.9416 9.35615 11.1315 9.54554C11.3215 9.73494 11.5531 9.8772 11.808 9.96094L12.6439 10.2328H12.6595C12.7239 10.2559 12.7796 10.2983 12.819 10.3543C12.8585 10.4102 12.8797 10.4769 12.8798 10.5453C12.8801 10.6132 12.8593 10.6795 12.8204 10.7351C12.7816 10.7908 12.7265 10.8331 12.6627 10.8562L11.8267 11.1281C11.5718 11.2121 11.3401 11.3547 11.1501 11.5443C10.9602 11.734 10.8173 11.9655 10.733 12.2203L10.4627 13.0547C10.4382 13.1176 10.3959 13.1719 10.3408 13.2109C10.2993 13.2402 10.2516 13.2595 10.2014 13.2674C10.1513 13.2752 10.1 13.2715 10.0515 13.2564C10.003 13.2413 9.95867 13.2152 9.92186 13.1803C9.88505 13.1453 9.85678 13.1023 9.83922 13.0547L9.56734 12.2203C9.4836 11.9646 9.34101 11.7322 9.15104 11.5417C8.96107 11.3512 8.72903 11.2079 8.47359 11.1234L7.63765 10.8516C7.59046 10.8337 7.54794 10.8053 7.51333 10.7686C7.47871 10.7319 7.4529 10.6878 7.43785 10.6396C7.4228 10.5914 7.4189 10.5405 7.42644 10.4906C7.43399 10.4407 7.45278 10.3931 7.4814 10.3516C7.51889 10.2951 7.57373 10.2523 7.63765 10.2297L7.63609 10.2313Z" fill="white"/>
</svg>
