<svg width="24" height="23" viewBox="0 0 24 23" fill="none" xmlns="http://www.w3.org/2000/svg">
<path d="M22.2857 1.44451V15.4286H1.71429V1.71429H24V1.71429C24 0.767512 23.2325 0 22.2857 0H1.71429C1.25963 0 0.823594 0.180612 0.502103 0.502103C0.180612 0.823594 0 1.25963 0 1.71429V15.4286C0 15.8832 0.180612 16.3193 0.502103 16.6408C0.823594 16.9622 1.25963 17.1429 1.71429 17.1429H8.57143V20.5714H5.14286V22.2857H18.8571V20.5714H15.4286V17.1429H22.2857C22.7404 17.1429 23.1764 16.9622 23.4979 16.6408C23.8194 16.3193 24 15.8832 24 15.4286V1.44451H22.2857ZM13.7143 20.5714H10.2857V17.1429H13.7143V20.5714Z" fill="#179CE6"/>
<path d="M17 13L14.8751 10.8713L17 13ZM16.0526 8.02632C16.0526 9.09416 15.6284 10.1183 14.8734 10.8734C14.1183 11.6284 13.0942 12.0526 12.0263 12.0526C10.9585 12.0526 9.93436 11.6284 9.17928 10.8734C8.4242 10.1183 8 9.09416 8 8.02632C8 6.95847 8.4242 5.93436 9.17928 5.17928C9.93436 4.4242 10.9585 4 12.0263 4C13.0942 4 14.1183 4.4242 14.8734 5.17928C15.6284 5.93436 16.0526 6.95847 16.0526 8.02632V8.02632Z" stroke="#179CE6" stroke-linecap="round"/>
</svg>
