<svg width="29" height="22" viewBox="0 0 29 22" fill="none" xmlns="http://www.w3.org/2000/svg">
<path d="M28.5312 6.875C28.4401 6.875 28.3526 6.91122 28.2882 6.97568C28.2237 7.04015 28.1875 7.12758 28.1875 7.21875V20.9688C28.1875 21.0599 28.1513 21.1474 28.0868 21.2118C28.0224 21.2763 27.9349 21.3125 27.8438 21.3125H1.03125C0.940082 21.3125 0.852648 21.2763 0.788182 21.2118C0.723716 21.1474 0.6875 21.0599 0.6875 20.9688V7.21875C0.6875 7.12758 0.651284 7.04015 0.586818 6.97568C0.522352 6.91122 0.434918 6.875 0.34375 6.875C0.252582 6.875 0.165148 6.91122 0.100682 6.97568C0.0362164 7.04015 0 7.12758 0 7.21875L0 20.9688C0 21.5373 0.462687 22 1.03125 22H27.8438C28.4123 22 28.875 21.5373 28.875 20.9688V7.21875C28.875 7.12758 28.8388 7.04015 28.7743 6.97568C28.7099 6.91122 28.6224 6.875 28.5312 6.875Z" fill="#179CE6"/>
<path d="M27.8438 0H1.03125C0.462687 0 0 0.462687 0 1.03125V5.15625C0 5.24742 0.0362164 5.33485 0.100682 5.39932C0.165148 5.46378 0.252582 5.5 0.34375 5.5H28.5312C28.6224 5.5 28.7099 5.46378 28.7743 5.39932C28.8388 5.33485 28.875 5.24742 28.875 5.15625V1.03125C28.875 0.462687 28.4123 0 27.8438 0ZM28.1875 4.8125H0.6875V1.03125C0.6875 0.940082 0.723716 0.852648 0.788182 0.788182C0.852648 0.723716 0.940082 0.6875 1.03125 0.6875H27.8438C27.9349 0.6875 28.0224 0.723716 28.0868 0.788182C28.1513 0.852648 28.1875 0.940082 28.1875 1.03125V4.8125Z" fill="#179CE6"/>
<path d="M2.75 3.4375C3.1297 3.4375 3.4375 3.1297 3.4375 2.75C3.4375 2.3703 3.1297 2.0625 2.75 2.0625C2.3703 2.0625 2.0625 2.3703 2.0625 2.75C2.0625 3.1297 2.3703 3.4375 2.75 3.4375Z" fill="#179CE6"/>
<path d="M5.5 3.4375C5.8797 3.4375 6.1875 3.1297 6.1875 2.75C6.1875 2.3703 5.8797 2.0625 5.5 2.0625C5.1203 2.0625 4.8125 2.3703 4.8125 2.75C4.8125 3.1297 5.1203 3.4375 5.5 3.4375Z" fill="#179CE6"/>
<path d="M8.25 3.4375C8.6297 3.4375 8.9375 3.1297 8.9375 2.75C8.9375 2.3703 8.6297 2.0625 8.25 2.0625C7.8703 2.0625 7.5625 2.3703 7.5625 2.75C7.5625 3.1297 7.8703 3.4375 8.25 3.4375Z" fill="#179CE6"/>
<rect x="6.375" y="8.375" width="15.25" height="10.25" rx="0.625" stroke="#179CE6" stroke-width="0.75"/>
<path d="M13.2227 16L12.7949 14.8105H11.1572L10.7383 16H10L11.6025 11.6992H12.3643L13.9668 16H13.2227ZM12.6104 14.207L12.209 13.041C12.1797 12.9629 12.1387 12.8398 12.0859 12.6719C12.0352 12.5039 12 12.3809 11.9805 12.3027C11.9277 12.543 11.8506 12.8057 11.749 13.0908L11.3623 14.207H12.6104ZM18.0156 13.8174C18.0156 14.5244 17.8193 15.0654 17.4268 15.4404C17.0342 15.8135 16.4688 16 15.7305 16H14.5322V11.7168H15.8564C16.5381 11.7168 17.0684 11.9004 17.4473 12.2676C17.8262 12.6348 18.0156 13.1514 18.0156 13.8174ZM17.2773 13.8408C17.2773 12.8154 16.7979 12.3027 15.8389 12.3027H15.2324V15.4111H15.7305C16.7617 15.4111 17.2773 14.8877 17.2773 13.8408Z" fill="#179CE6"/>
</svg>
