<svg width="25" height="24" viewBox="0 0 25 24" fill="none" xmlns="http://www.w3.org/2000/svg">
<path d="M1.8 2.1C1.8 2.02044 1.83161 1.94413 1.88787 1.88787C1.94413 1.83161 2.02043 1.8 2.1 1.8H18.3C18.3796 1.8 18.4559 1.83161 18.5121 1.88787C18.5684 1.94413 18.6 2.02044 18.6 2.1V14.1C18.6 14.3387 18.6948 14.5676 18.8636 14.7364C19.0324 14.9052 19.2613 15 19.5 15C19.7387 15 19.9676 14.9052 20.1364 14.7364C20.3052 14.5676 20.4 14.3387 20.4 14.1V2.1C20.4 1.54305 20.1787 1.0089 19.7849 0.615076C19.3911 0.221249 18.857 0 18.3 0H2.1C1.54305 0 1.0089 0.221249 0.615076 0.615076C0.221249 1.0089 0 1.54305 0 2.1V21.9C0 23.0592 0.9408 24 2.1 24H10.5C10.7387 24 10.9676 23.9052 11.1364 23.7364C11.3052 23.5676 11.4 23.3387 11.4 23.1C11.4 22.8613 11.3052 22.6324 11.1364 22.4636C10.9676 22.2948 10.7387 22.2 10.5 22.2H2.1C2.02043 22.2 1.94413 22.1684 1.88787 22.1121C1.83161 22.0559 1.8 21.9796 1.8 21.9V2.1Z" fill="white"/>
<path d="M5.09995 6C4.86126 6 4.63234 6.09482 4.46355 6.2636C4.29477 6.43239 4.19995 6.66131 4.19995 6.9C4.19995 7.13869 4.29477 7.36761 4.46355 7.5364C4.63234 7.70518 4.86126 7.8 5.09995 7.8H15.3C15.5386 7.8 15.7676 7.70518 15.9363 7.5364C16.1051 7.36761 16.2 7.13869 16.2 6.9C16.2 6.66131 16.1051 6.43239 15.9363 6.2636C15.7676 6.09482 15.5386 6 15.3 6H5.09995ZM4.19995 11.7C4.19995 11.4613 4.29477 11.2324 4.46355 11.0636C4.63234 10.8948 4.86126 10.8 5.09995 10.8H10.5C10.7386 10.8 10.9676 10.8948 11.1363 11.0636C11.3051 11.2324 11.4 11.4613 11.4 11.7C11.4 11.9387 11.3051 12.1676 11.1363 12.3364C10.9676 12.5052 10.7386 12.6 10.5 12.6H5.09995C4.86126 12.6 4.63234 12.5052 4.46355 12.3364C4.29477 12.1676 4.19995 11.9387 4.19995 11.7ZM23.736 17.136C23.8244 17.0536 23.8953 16.9542 23.9445 16.8438C23.9937 16.7334 24.0201 16.6143 24.0223 16.4934C24.0244 16.3726 24.0022 16.2525 23.9569 16.1405C23.9116 16.0284 23.8443 15.9266 23.7588 15.8412C23.6733 15.7557 23.5715 15.6883 23.4595 15.6431C23.3474 15.5978 23.2274 15.5756 23.1065 15.5777C22.9857 15.5798 22.8665 15.6063 22.7561 15.6555C22.6457 15.7047 22.5463 15.7756 22.464 15.864L16.5 21.828L14.136 19.464C14.0536 19.3756 13.9542 19.3047 13.8438 19.2555C13.7334 19.2063 13.6142 19.1798 13.4934 19.1777C13.3725 19.1756 13.2525 19.1978 13.1404 19.2431C13.0284 19.2883 12.9266 19.3557 12.8411 19.4412C12.7556 19.5266 12.6883 19.6284 12.643 19.7405C12.5977 19.8526 12.5755 19.9726 12.5776 20.0934C12.5798 20.2143 12.6062 20.3334 12.6554 20.4438C12.7046 20.5542 12.7755 20.6536 12.864 20.736L15.864 23.736C16.0327 23.9045 16.2615 23.9992 16.5 23.9992C16.7385 23.9992 16.9672 23.9045 17.136 23.736L23.736 17.136Z" fill="white"/>
</svg>
