<svg width="50" height="51" viewBox="0 0 50 51" fill="none" xmlns="http://www.w3.org/2000/svg">
<path d="M19.6429 23.558C22.2946 23.558 24.2036 26.2312 26.225 29.0598C28.5679 32.3402 31.225 36.058 35.7143 36.058C45.8393 36.058 49.6071 16.7902 50 14.6295L46.4857 13.9902C45.625 18.7045 41.775 32.4866 35.7143 32.4866C33.0625 32.4866 31.1536 29.8134 29.1321 26.9848C26.7893 23.7045 24.1321 19.9866 19.6429 19.9866C12.1679 19.9866 6.34821 33.208 3.57143 40.9902V0.34375H0V46.7723C0.000945494 47.7192 0.377523 48.6271 1.04709 49.2967C1.71666 49.9662 2.62452 50.3428 3.57143 50.3437H50V46.7723H5.43571C8.13214 37.5884 14.2214 23.558 19.6429 23.558Z" fill="#179CE6"/>
<path d="M0 0.34375H3.61111V50.3437C1.61675 50.3437 0 48.727 0 46.7326V0.34375Z" fill="#444444"/>
<rect x="3.33331" y="46.7881" width="46.6667" height="3.55556" fill="#444444"/>
</svg>
