<svg width="24" height="23" viewBox="0 0 24 23" fill="none" xmlns="http://www.w3.org/2000/svg">
<path d="M13.25 4.53516H20.75V12.0352H13.25V4.53516Z" stroke="#179CE6" stroke-width="0.5"/>
<path d="M16.4375 9.78516L16.082 8.87695H14.9375L14.5859 9.78516H14.25L15.3789 6.91797H15.6582L16.7812 9.78516H16.4375ZM15.9785 8.57812L15.6465 7.69336C15.6035 7.58138 15.5592 7.44401 15.5137 7.28125C15.485 7.40625 15.444 7.54362 15.3906 7.69336L15.0547 8.57812H15.9785ZM19.4531 8.33008C19.4531 8.80143 19.3249 9.16211 19.0684 9.41211C18.8132 9.66081 18.4453 9.78516 17.9648 9.78516H17.1738V6.92969H18.0488C18.4928 6.92969 18.8379 7.05273 19.084 7.29883C19.3301 7.54492 19.4531 7.88867 19.4531 8.33008ZM19.1016 8.3418C19.1016 7.9694 19.0078 7.6888 18.8203 7.5C18.6341 7.3112 18.3568 7.2168 17.9883 7.2168H17.5059V9.49805H17.9102C18.306 9.49805 18.6035 9.40104 18.8027 9.20703C19.002 9.01172 19.1016 8.72331 19.1016 8.3418Z" fill="#179CE6"/>
<path d="M3 4.28516H11V6.28516H3V4.28516Z" fill="#179CE6"/>
<path d="M3 7.28516H11V8.28516H3V7.28516Z" fill="#179CE6"/>
<path d="M3 9.28516H11V10.2852H3V9.28516Z" fill="#179CE6"/>
<path d="M3 11.2852H8V12.2852H3V11.2852Z" fill="#179CE6"/>
<path d="M22.2857 1.44451V15.4286H1.71429V1.71429H24V1.71429C24 0.767512 23.2325 0 22.2857 0H1.71429C1.25963 0 0.823594 0.180612 0.502103 0.502103C0.180612 0.823594 0 1.25963 0 1.71429V15.4286C0 15.8832 0.180612 16.3193 0.502103 16.6408C0.823594 16.9622 1.25963 17.1429 1.71429 17.1429H8.57143V20.5714H5.14286V22.2857H18.8571V20.5714H15.4286V17.1429H22.2857C22.7404 17.1429 23.1764 16.9622 23.4979 16.6408C23.8194 16.3193 24 15.8832 24 15.4286V1.44451H22.2857ZM13.7143 20.5714H10.2857V17.1429H13.7143V20.5714Z" fill="#179CE6"/>
</svg>
