<svg width="38" height="39" viewBox="0 0 38 39" fill="none" xmlns="http://www.w3.org/2000/svg">
<path d="M24 6.00256L32 14.0026M1 37.0026H9L35 11.0026C36.0609 9.94169 36.6569 8.50285 36.6569 7.00256C36.6569 5.50227 36.0609 4.06342 35 3.00256C33.9391 1.94169 32.5003 1.3457 31 1.3457C29.4997 1.3457 28.0609 1.94169 27 3.00256L1 29.0026V37.0026Z" stroke="black" stroke-width="2" stroke-linecap="round" stroke-linejoin="round"/>
<path d="M27 29L24 32M19 11L9 1L1 9L11 19L19 11ZM9 11L6 14L9 11ZM27 19L37 29L29 37L19 27L27 19Z" stroke="#0ECD9D" stroke-width="2" stroke-linecap="round" stroke-linejoin="round"/>
</svg>
