<svg width="28" height="28" viewBox="0 0 28 28" fill="none" xmlns="http://www.w3.org/2000/svg">
<path d="M12.1206 6.62686L7.72266 1.6724C7.21566 1.10146 6.28615 1.104 5.69724 1.68001L2.08061 5.21601C1.0042 6.2678 0.696099 7.82963 1.3188 9.08189C5.03894 16.5992 11.251 22.6703 18.9483 26.3115C20.2301 26.9192 21.8291 26.6185 22.9055 25.5667L26.5559 21.9977C27.1474 21.4205 27.1487 20.5082 26.5585 20.0134L21.4625 15.7441C20.9295 15.2975 20.1014 15.3558 19.5671 15.8786L17.7938 17.6117C17.7031 17.7045 17.5836 17.7657 17.4537 17.7859C17.3238 17.8061 17.1908 17.7841 17.0749 17.7233C14.1765 16.0944 11.7722 13.7448 10.1069 10.914C10.0445 10.8007 10.0219 10.6706 10.0426 10.5437C10.0633 10.4167 10.126 10.2999 10.2213 10.2111L11.9893 8.4843C12.5249 7.95904 12.5834 7.14705 12.1206 6.62559V6.62686Z" stroke="white" stroke-width="2" stroke-linecap="round" stroke-linejoin="round"/>
</svg>
