<svg width="25" height="20" viewBox="0 0 25 20" fill="none" xmlns="http://www.w3.org/2000/svg">
<path d="M1 3.44202C1 2.85962 1.23705 2.30108 1.65901 1.88926C2.08097 1.47745 2.65326 1.24609 3.25 1.24609H21.25C21.8467 1.24609 22.419 1.47745 22.841 1.88926C23.2629 2.30108 23.5 2.85962 23.5 3.44202V16.6176C23.5 17.1999 23.2629 17.7585 22.841 18.1703C22.419 18.5821 21.8467 18.8135 21.25 18.8135H3.25C2.65326 18.8135 2.08097 18.5821 1.65901 18.1703C1.23705 17.7585 1 17.1999 1 16.6176V3.44202Z" stroke="white" stroke-width="2" stroke-linecap="round" stroke-linejoin="round"/>
<path d="M1 5.63867L9.43863 12.2274C10.2366 12.8505 11.2281 13.1899 12.25 13.1899C13.2719 13.1899 14.2634 12.8505 15.0614 12.2274L23.5 5.63867" stroke="white" stroke-width="2" stroke-linejoin="round"/>
</svg>
