<svg width="24" height="25" viewBox="0 0 24 25" fill="none" xmlns="http://www.w3.org/2000/svg">
<path d="M20.5715 8.60938L23.5406 10.3237L22.6835 11.8082L19.7144 10.0939L20.5715 8.60938Z" fill="#179CE6"/>
<path d="M20.5713 5.18066H23.9999V6.89495H20.5713V5.18066Z" fill="#179CE6"/>
<path d="M4.28576 10.0939L1.31662 11.8082L0.459473 10.3237L3.42862 8.60938L4.28576 10.0939Z" fill="#179CE6"/>
<path d="M20.5716 24.0386H18.8573V19.7529C18.8559 18.6167 18.404 17.5274 17.6005 16.724C16.7971 15.9205 15.7078 15.4686 14.5716 15.4672H9.42871C8.29249 15.4686 7.20319 15.9205 6.39976 16.724C5.59632 17.5274 5.14436 18.6167 5.143 19.7529V24.0386H3.42871V19.7529C3.43053 18.1622 4.06325 16.6371 5.18807 15.5123C6.3129 14.3875 7.83797 13.7547 9.42871 13.7529H14.5716C16.1623 13.7547 17.6874 14.3875 18.8122 15.5123C19.937 16.6371 20.5698 18.1622 20.5716 19.7529V24.0386Z" fill="#179CE6"/>
<path d="M19.7144 1.98186L22.6835 0.267578L23.5406 1.75215L20.5715 3.46644L19.7144 1.98186Z" fill="#179CE6"/>
<path d="M0 5.18066H3.42857V6.89495H0V5.18066Z" fill="#179CE6"/>
<path d="M3.42862 3.46644L0.459473 1.75215L1.31662 0.267578L4.28576 1.98186L3.42862 3.46644Z" fill="#179CE6"/>
<path d="M11.9623 6.90122C12.5987 6.90122 13.1146 6.38533 13.1146 5.74895C13.1146 5.11257 12.5987 4.59668 11.9623 4.59668C11.3259 4.59668 10.8101 5.11257 10.8101 5.74895C10.8101 6.38533 11.3259 6.90122 11.9623 6.90122Z" fill="#179CE6"/>
<path d="M8.73539 8.0383L8.48041 7.9731C6.58643 7.49477 5.5 6.6814 5.5 5.74474C5.5 4.80743 6.58707 3.99471 8.48041 3.51637L8.73539 3.45182L8.80705 3.70422C8.99847 4.36505 9.24373 5.00907 9.54037 5.62983L9.59524 5.74474L9.54037 5.85964C9.24342 6.48129 8.99748 7.12552 8.80705 7.78655L8.73539 8.0383ZM8.36292 4.1038C6.92404 4.50919 6.04031 5.12761 6.04031 5.74474C6.04031 6.36057 6.92339 6.97964 8.36292 7.38438C8.53915 6.82406 8.75218 6.27601 8.99877 5.74474C8.75039 5.21258 8.53797 4.66437 8.36292 4.1038ZM15.1875 8.0383L15.1164 7.78526C14.9245 7.1243 14.679 6.48008 14.3825 5.859L14.3276 5.74474L14.3825 5.62919C14.6794 5.00883 14.9241 4.36395 15.1164 3.70293L15.1875 3.45117L15.4424 3.51572C17.3371 3.99406 18.4229 4.80678 18.4229 5.74474C18.4229 6.68205 17.3364 7.49477 15.4424 7.9731L15.1875 8.0383ZM14.9228 5.74474C15.181 6.30377 15.396 6.85376 15.5599 7.38438C16.9995 6.97964 17.8832 6.36057 17.8832 5.74474C17.8832 5.12761 17.0001 4.50984 15.5599 4.1038C15.3839 4.6642 15.171 5.21237 14.9228 5.74474Z" fill="#179CE6"/>
<path d="M8.35885 4.10307L8.28785 3.85131C7.75464 1.97411 7.91602 0.629476 8.73132 0.160822C9.52855 -0.300732 10.8112 0.244741 12.1546 1.62295L12.3379 1.81144L12.1546 1.99929C11.6774 2.4955 11.2414 3.0296 10.8506 3.59633L10.7777 3.7009L10.6511 3.71123C9.96402 3.7652 9.28245 3.87509 8.61319 4.03981L8.35885 4.10307ZM9.38008 0.533938C9.23548 0.533938 9.10767 0.565569 8.99986 0.627539C8.46537 0.935457 8.37112 2.00768 8.73907 3.45496C9.31424 3.32779 9.89457 3.23677 10.4794 3.18577C10.818 2.70553 11.1874 2.24775 11.5852 1.81531C10.7441 0.997428 9.95008 0.533938 9.38008 0.533938ZM14.5424 11.4976C13.7755 11.4976 12.7904 10.9192 11.7679 9.86958L11.5852 9.68173L11.7679 9.49453C12.2451 8.99752 12.6814 8.46279 13.0725 7.89555L13.1448 7.79227L13.27 7.78C13.9574 7.72699 14.6392 7.61753 15.3086 7.45272L15.5636 7.38817L15.6353 7.64057C16.1659 9.51648 16.0051 10.8631 15.1911 11.3317C14.9935 11.4437 14.7695 11.501 14.5424 11.4976ZM12.3379 9.67721C13.1784 10.4951 13.973 10.9592 14.5424 10.9592C14.6876 10.9592 14.8154 10.927 14.9226 10.8656C15.4577 10.5571 15.5526 9.48291 15.1834 8.03563C14.6089 8.16345 14.0279 8.25511 13.4418 8.30611C13.1046 8.78711 12.7358 9.24515 12.3379 9.67721Z" fill="#179CE6"/>
<path d="M15.5638 4.10272L15.3088 4.03881C14.6394 3.87358 13.9576 3.76369 13.2702 3.71024L13.145 3.69927L13.0727 3.59469C12.6821 3.02765 12.2457 2.49352 11.768 1.99765L11.5854 1.8098L11.768 1.6226C13.1107 0.245039 14.3928 -0.300433 15.1913 0.160475C16.0059 0.629775 16.168 1.97441 15.6354 3.85097L15.5638 4.10272ZM13.4419 3.18543C14.0577 3.2403 14.6413 3.33261 15.1835 3.45461C15.5521 2.00733 15.4579 0.93511 14.9227 0.626547C14.3908 0.318629 13.3896 0.789866 12.338 1.81497C12.7357 2.24747 13.1049 2.70451 13.4419 3.18543ZM9.38023 11.4973C9.15309 11.5005 8.92917 11.4432 8.73147 11.3314C7.91617 10.8627 7.75479 9.51678 8.28735 7.64022L8.35707 7.38782L8.61205 7.45237C9.23434 7.60924 9.91989 7.71962 10.6506 7.77966L10.7759 7.79192L10.8488 7.89521C11.2387 8.46198 11.6751 8.99713 12.1528 9.49418L12.3361 9.68139L12.1528 9.86924C11.1309 10.9195 10.1458 11.4973 9.38023 11.4973ZM8.73922 8.03593C8.37127 9.48321 8.46551 10.5574 9.00001 10.8659C9.53257 11.1693 10.5306 10.7013 11.5854 9.67687C11.1877 9.2443 10.8183 8.78653 10.4796 8.30641C9.89413 8.25464 9.31275 8.16428 8.73922 8.03593Z" fill="#179CE6"/>
<path d="M11.9615 8.37584C11.518 8.37584 11.0629 8.35712 10.6059 8.31903L10.4794 8.30806L10.4064 8.20348C10.1487 7.83288 9.90622 7.45192 9.67957 7.06154C9.45459 6.67011 9.24549 6.26977 9.05276 5.8615L8.99854 5.74724L9.05276 5.63169C9.24577 5.22372 9.45428 4.82349 9.67957 4.4323C9.90357 4.04757 10.1482 3.66283 10.4064 3.28971L10.4794 3.18643L10.6059 3.17481C11.5076 3.09928 12.4141 3.09928 13.3158 3.17481L13.4411 3.18707L13.514 3.29036C14.0303 4.03191 14.4838 4.8153 14.8696 5.63234L14.9232 5.74789L14.8696 5.86215C14.4848 6.67975 14.0313 7.46322 13.514 8.20413L13.4411 8.3087L13.3158 8.31968C12.8601 8.35647 12.4043 8.37584 11.9615 8.37584ZM10.7776 7.79228C11.5748 7.85232 12.3482 7.85232 13.1448 7.79228C13.5895 7.14108 13.9848 6.45749 14.3274 5.74724C13.986 5.03636 13.5906 4.35268 13.1448 3.70221C12.3569 3.64153 11.5655 3.64153 10.7776 3.70221C10.3314 4.35245 9.93601 5.03616 9.595 5.74724C9.93835 6.4571 10.3336 7.14063 10.7776 7.79228Z" fill="#179CE6"/>
</svg>
