<svg width="34" height="33" viewBox="0 0 34 33" fill="none" xmlns="http://www.w3.org/2000/svg">
<path d="M5.61332 26.8205C3.41055 24.6179 1.91043 21.8115 1.30267 18.7563C0.694909 15.701 1.00681 12.5342 2.19892 9.65625C3.39103 6.77829 5.40981 4.31848 7.99995 2.58789M27.8874 4.54644C30.0902 6.74908 31.5903 9.55546 32.198 12.6107C32.8058 15.6659 32.4939 18.8328 31.3018 21.7107C30.1097 24.5887 28.0909 27.0485 25.5008 28.7791C22.9106 30.5097 19.8654 31.4333 16.7504 31.4332" stroke="#179CE6" stroke-width="1.21151" stroke-linecap="round" stroke-linejoin="round"/>
<path d="M25.4767 6.10774C26.8872 6.10774 28.0306 4.96433 28.0306 3.55387C28.0306 2.14341 26.8872 1 25.4767 1C24.0663 1 22.9229 2.14341 22.9229 3.55387C22.9229 4.96433 24.0663 6.10774 25.4767 6.10774Z" stroke="#179CE6" stroke-width="1.21151" stroke-linecap="round" stroke-linejoin="round"/>
<path d="M8.02457 30.3695C9.43504 30.3695 10.5784 29.2261 10.5784 27.8156C10.5784 26.4051 9.43504 25.2617 8.02457 25.2617C6.61411 25.2617 5.4707 26.4051 5.4707 27.8156C5.4707 29.2261 6.61411 30.3695 8.02457 30.3695Z" stroke="#179CE6" stroke-width="1.21151" stroke-linecap="round" stroke-linejoin="round"/>
<path d="M13.4165 12.6962L15.9712 17.8047L24.4841 16.9534L19.3763 6.73633L13.4165 12.6962Z" stroke="#179CE6" stroke-width="1.21151" stroke-linecap="round" stroke-linejoin="round"/>
<path d="M15.2183 18.2384L17.3466 22.4948L15.644 23.3461L13.5158 19.0897M13.4164 12.6953L10.0113 14.3979C8.98794 14.9092 9.07436 16.7805 9.58562 17.8039C10.0969 18.8272 11.5418 20.0177 12.5659 19.5064L15.9711 17.8039L13.4164 12.6953Z" stroke="#179CE6" stroke-width="1.21151" stroke-linecap="round" stroke-linejoin="round"/>
</svg>
