<svg width="39" height="44" viewBox="0 0 39 44" fill="none" xmlns="http://www.w3.org/2000/svg">
<g clip-path="url(#clip0_374:1515)">
<path d="M19.7127 12.0879C14.3713 12.0879 10.0629 16.3963 10.0629 21.7377C10.0629 27.0791 14.3713 31.3875 19.7127 31.3875C25.0541 31.3875 29.3624 27.0791 29.3624 21.7377C29.3624 16.3963 25.0541 12.0879 19.7127 12.0879ZM19.7127 28.0114C16.2609 28.0114 13.439 25.1979 13.439 21.7377C13.439 18.2776 16.2525 15.4641 19.7127 15.4641C23.1728 15.4641 25.9863 18.2776 25.9863 21.7377C25.9863 25.1979 23.1644 28.0114 19.7127 28.0114ZM32.0079 11.6932C32.0079 12.9446 31.0001 13.944 29.7572 13.944C28.5058 13.944 27.5064 12.9362 27.5064 11.6932C27.5064 10.4502 28.5142 9.44243 29.7572 9.44243C31.0001 9.44243 32.0079 10.4502 32.0079 11.6932ZM38.3991 13.9776C38.2564 10.9625 37.5677 8.29185 35.3589 6.09145C33.1585 3.89106 30.4878 3.20239 27.4728 3.05122C24.3654 2.87485 15.0515 2.87485 11.9441 3.05122C8.93748 3.19399 6.26679 3.88267 4.058 6.08306C1.84922 8.28345 1.16894 10.9542 1.01777 13.9692C0.841406 17.0766 0.841406 26.3905 1.01777 29.4979C1.16055 32.5129 1.84922 35.1836 4.058 37.384C6.26679 39.5844 8.92909 40.2731 11.9441 40.4243C15.0515 40.6006 24.3654 40.6006 27.4728 40.4243C30.4878 40.2815 33.1585 39.5928 35.3589 37.384C37.5593 35.1836 38.248 32.5129 38.3991 29.4979C38.5755 26.3905 38.5755 17.085 38.3991 13.9776ZM34.3847 32.8321C33.7296 34.4782 32.4615 35.7463 30.807 36.4098C28.3294 37.3924 22.4505 37.1657 19.7127 37.1657C16.9748 37.1657 11.0875 37.384 8.61834 36.4098C6.97225 35.7547 5.70409 34.4866 5.04062 32.8321C4.058 30.3545 4.28476 24.4756 4.28476 21.7377C4.28476 18.9999 4.0664 13.1125 5.04062 10.6434C5.69569 8.99731 6.96385 7.72915 8.61834 7.06567C11.0959 6.08306 16.9748 6.30981 19.7127 6.30981C22.4505 6.30981 28.3378 6.09145 30.807 7.06567C32.4531 7.72075 33.7212 8.98892 34.3847 10.6434C35.3673 13.1209 35.1406 18.9999 35.1406 21.7377C35.1406 24.4756 35.3673 30.3629 34.3847 32.8321Z" fill="white"/>
</g>
<defs>
<clipPath id="clip0_374:1515">
<rect width="37.625" height="43" fill="white" transform="translate(0.891846 0.246094)"/>
</clipPath>
</defs>
</svg>
