<svg width="14" height="14" viewBox="0 0 14 14" fill="none" xmlns="http://www.w3.org/2000/svg">
<path d="M3.79785 6.2998H5.19785V7.6998H3.79785V6.2998ZM3.79785 9.0998H5.19785V10.4998H3.79785V9.0998ZM6.59785 6.2998H7.99785V7.6998H6.59785V6.2998ZM6.59785 9.0998H7.99785V10.4998H6.59785V9.0998ZM9.39785 6.2998H10.7979V7.6998H9.39785V6.2998ZM9.39785 9.0998H10.7979V10.4998H9.39785V9.0998Z" fill="white"/>
<path d="M2.39805 14H12.198C12.9701 14 13.598 13.3721 13.598 12.6V2.8C13.598 2.0279 12.9701 1.4 12.198 1.4H10.798V0H9.39805V1.4H5.19805V0H3.79805V1.4H2.39805C1.62595 1.4 0.998047 2.0279 0.998047 2.8V12.6C0.998047 13.3721 1.62595 14 2.39805 14ZM12.198 4.2L12.1987 12.6H2.39805V4.2H12.198Z" fill="white"/>
</svg>
