<svg width="24" height="28" viewBox="0 0 24 28" fill="none" xmlns="http://www.w3.org/2000/svg">
<path d="M17.6164 7.53164V5.99978C17.6164 5.85936 17.5015 5.74447 17.3611 5.74447H5.10619C4.96577 5.74447 4.85088 5.85936 4.85088 5.99978V7.53164C4.85088 7.67206 4.96577 7.78695 5.10619 7.78695H17.3611C17.5015 7.78695 17.6164 7.67206 17.6164 7.53164ZM5.10619 10.34C4.96577 10.34 4.85088 10.4549 4.85088 10.5954V12.1272C4.85088 12.2676 4.96577 12.3825 5.10619 12.3825H10.9783C11.1187 12.3825 11.2336 12.2676 11.2336 12.1272V10.5954C11.2336 10.4549 11.1187 10.34 10.9783 10.34H5.10619ZM9.70177 24.765H2.29779V2.29779H20.1695V13.2761C20.1695 13.4165 20.2844 13.5314 20.4248 13.5314H22.2119C22.3524 13.5314 22.4673 13.4165 22.4673 13.2761V1.02124C22.4673 0.456366 22.0109 0 21.446 0H1.02124C0.456366 0 0 0.456366 0 1.02124V26.0416C0 26.6065 0.456366 27.0628 1.02124 27.0628H9.70177C9.84219 27.0628 9.95708 26.9479 9.95708 26.8075V25.0204C9.95708 24.8799 9.84219 24.765 9.70177 24.765ZM23.9257 26.4086L20.9482 23.4311C21.6598 22.4896 22.0843 21.3152 22.0843 20.0418C22.0843 16.9398 19.5695 14.425 16.4675 14.425C13.3655 14.425 10.8507 16.9398 10.8507 20.0418C10.8507 23.1438 13.3655 25.6586 16.4675 25.6586C17.61 25.6586 18.6695 25.3172 19.5567 24.7331L22.579 27.7554C22.63 27.8064 22.6938 27.8288 22.7577 27.8288C22.8215 27.8288 22.8885 27.8032 22.9364 27.7554L23.9257 26.766C23.9493 26.7426 23.9679 26.7148 23.9807 26.6841C23.9934 26.6534 24 26.6205 24 26.5873C24 26.5541 23.9934 26.5212 23.9807 26.4905C23.9679 26.4599 23.9493 26.432 23.9257 26.4086ZM16.4675 23.6161C14.492 23.6161 12.8931 22.0173 12.8931 20.0418C12.8931 18.0664 14.492 16.4675 16.4675 16.4675C18.4429 16.4675 20.0418 18.0664 20.0418 20.0418C20.0418 22.0173 18.4429 23.6161 16.4675 23.6161Z" fill="white"/>
</svg>
