<svg width="33" height="22" viewBox="0 0 33 22" fill="none" xmlns="http://www.w3.org/2000/svg">
<path d="M14.0031 15.7565C15.6508 14.9794 16.9932 13.6379 17.8067 11.9554C18.6203 10.2729 18.8558 8.35094 18.4741 6.50956C18.0925 4.66817 17.1167 3.01852 15.7092 1.83532C14.3017 0.652125 12.5476 0.0067919 10.7388 0.0067919C8.93003 0.0067919 7.17584 0.652125 5.76837 1.83532C4.3609 3.01852 3.38509 4.66817 3.00344 6.50956C2.62179 8.35094 2.85733 10.2729 3.67085 11.9554C4.48437 13.6379 5.82676 14.9794 7.47447 15.7565C4.48939 16.5625 1.87559 18.4451 0.0979348 21.0695C0.0145417 21.1992 -0.0173269 21.3576 0.0090245 21.5113C0.0353759 21.665 0.117896 21.802 0.239248 21.8937C0.334468 21.9628 0.448214 21.9989 0.564267 21.9967C0.655208 21.995 0.744557 21.9715 0.825415 21.9282C0.906272 21.8848 0.976474 21.8226 1.0306 21.7465C2.12606 20.1249 3.57994 18.8015 5.26958 17.888C6.95922 16.9745 8.83504 16.4976 10.7388 16.4976C12.6425 16.4976 14.5184 16.9745 16.208 17.888C17.8976 18.8015 19.3515 20.1249 20.447 21.7465C20.4897 21.8103 20.544 21.8647 20.6069 21.9066C20.6697 21.9485 20.7399 21.9771 20.8134 21.9908C20.8869 22.0044 20.9622 22.0029 21.0351 21.9862C21.1081 21.9696 21.1771 21.9381 21.2383 21.8937C21.2996 21.8492 21.3518 21.7926 21.3921 21.7272C21.4323 21.6617 21.4598 21.5886 21.4729 21.5121C21.486 21.4355 21.4845 21.3571 21.4685 21.2811C21.4525 21.2052 21.4223 21.1333 21.3797 21.0695C19.602 18.4451 16.9882 16.5625 14.0031 15.7565V15.7565ZM3.95578 8.25058C3.95578 6.85338 4.35359 5.48755 5.09892 4.32582C5.84425 3.16409 6.90361 2.25863 8.14304 1.72394C9.38248 1.18925 10.7463 1.04935 12.0621 1.32194C13.3779 1.59452 14.5865 2.26733 15.5351 3.25531C16.4837 4.24328 17.1298 5.50203 17.3915 6.87239C17.6532 8.24274 17.5189 9.66316 17.0055 10.954C16.4921 12.2449 15.6227 13.3482 14.5072 14.1244C13.3918 14.9006 12.0803 15.315 10.7388 15.315C8.93982 15.315 7.21454 14.5707 5.94248 13.2459C4.67041 11.921 3.95578 10.1242 3.95578 8.25058V8.25058ZM32.7553 21.8937C32.633 21.9797 32.4832 22.0125 32.3379 21.985C32.1927 21.9575 32.0636 21.8719 31.9781 21.7465C30.8793 20.1246 29.4229 18.8009 27.7312 17.8867C26.0394 16.9724 24.1617 16.4943 22.2558 16.4924C22.1059 16.4924 21.9621 16.4303 21.8561 16.3199C21.7501 16.2095 21.6905 16.0598 21.6905 15.9037C21.6905 15.7475 21.7501 15.5978 21.8561 15.4874C21.9621 15.377 22.1059 15.315 22.2558 15.315C24.0548 15.315 25.78 14.5707 27.0521 13.2459C28.3242 11.921 29.0388 10.1242 29.0388 8.25058C29.0388 6.37699 28.3242 4.58014 27.0521 3.25531C25.78 1.93048 24.0548 1.18619 22.2558 1.18619C21.6346 1.18535 21.0163 1.27451 20.4187 1.45111C20.2744 1.49171 20.1206 1.47115 19.9908 1.39393C19.8611 1.3167 19.766 1.18909 19.7263 1.03902C19.6868 0.890728 19.7046 0.732208 19.7759 0.597414C19.8472 0.46262 19.9663 0.362272 20.1078 0.317864C22.0306 -0.254986 24.0903 -0.0484184 25.8727 0.896028C27.6551 1.84047 29.0281 3.45275 29.7156 5.40864C30.4031 7.36453 30.354 9.51897 29.5783 11.4387C28.8025 13.3585 27.3577 14.9011 25.5343 15.7565C28.5136 16.5668 31.1216 18.4489 32.8967 21.0695C32.9397 21.1331 32.9703 21.205 32.9865 21.281C33.0027 21.357 33.0043 21.4357 32.9912 21.5123C32.9781 21.589 32.9504 21.6621 32.91 21.7276C32.8695 21.7931 32.8169 21.8495 32.7553 21.8937V21.8937Z" fill="white"/>
</svg>
