<svg width="24" height="22" viewBox="0 0 24 22" fill="none" xmlns="http://www.w3.org/2000/svg">
<path d="M19.5 2.25C19.5 1.65326 19.7371 1.08097 20.159 0.65901C20.581 0.237053 21.1533 0 21.75 0C22.3467 0 22.919 0.237053 23.341 0.65901C23.7629 1.08097 24 1.65326 24 2.25V18.75C24 19.3467 23.7629 19.919 23.341 20.341C22.919 20.7629 22.3467 21 21.75 21C21.1533 21 20.581 20.7629 20.159 20.341C19.7371 19.919 19.5 19.3467 19.5 18.75V18.429C16.257 16.5675 12.765 15.6645 9.132 15.3045L9.7395 19.3725C9.7803 19.5892 9.77281 19.8123 9.71756 20.0258C9.66232 20.2393 9.56068 20.438 9.41988 20.6077C9.27908 20.7774 9.10259 20.914 8.90297 21.0078C8.70336 21.1015 8.48553 21.1501 8.265 21.15H7.443C7.15143 21.15 6.86619 21.065 6.62217 20.9054C6.37815 20.7458 6.18592 20.5186 6.069 20.2515L3.294 15.0165C3.193 15.0149 3.092 15.0134 2.991 15.012C2.19655 15.0041 1.43718 14.6836 0.877358 14.1198C0.317536 13.5561 0.00232777 12.7945 0 12L0 9C0.00267717 8.20544 0.317355 7.44372 0.876245 6.87894C1.43513 6.31416 2.19351 5.99151 2.988 5.9805C4.23004 5.96366 5.47171 5.92615 6.7125 5.868C11.277 5.637 15.9345 4.5945 19.5 2.5695V2.25ZM21 2.25V18.75C21 18.9489 21.079 19.1397 21.2197 19.2803C21.3603 19.421 21.5511 19.5 21.75 19.5C21.9489 19.5 22.1397 19.421 22.2803 19.2803C22.421 19.1397 22.5 18.9489 22.5 18.75V2.25C22.5 2.05109 22.421 1.86032 22.2803 1.71967C22.1397 1.57902 21.9489 1.5 21.75 1.5C21.5511 1.5 21.3603 1.57902 21.2197 1.71967C21.079 1.86032 21 2.05109 21 2.25ZM19.5 4.275C15.984 6.0825 11.6865 7.038 7.5 7.3245V13.674C7.77 13.689 8.0385 13.707 8.3055 13.728C12.1575 14.0115 15.945 14.844 19.5 16.7175V4.275ZM6 13.5975V7.4025C5.0043 7.43894 4.00824 7.46494 3.012 7.4805C2.61116 7.48521 2.22817 7.64704 1.94542 7.9312C1.66266 8.21536 1.50272 8.59914 1.5 9V12C1.5 12.825 2.172 13.503 3.009 13.5135C4.00639 13.5251 5.00353 13.5531 6 13.5975ZM5.0145 15.06L7.428 19.6155L7.443 19.6515H8.265L8.262 19.6305L7.5975 15.1815C6.73705 15.1296 5.87599 15.0886 5.0145 15.0585V15.06Z" fill="#179CE6"/>
</svg>
