<svg width="24" height="30" viewBox="0 0 24 30" fill="none" xmlns="http://www.w3.org/2000/svg">
<path d="M11.9999 17.9999C15.3089 17.9999 17.9999 15.3089 17.9999 11.9999C17.9999 8.69097 15.3089 6 11.9999 6C8.69097 6 6 8.69097 6 11.9999C6 15.3089 8.69097 17.9999 11.9999 17.9999ZM11.9999 8.5C13.6544 8.5 15.5 10.3455 15.5 11.9999C15.5 13.6544 13.6544 15.5 11.9999 15.5C10.3455 15.5 8.5 13.6544 8.5 11.9999C8.5 10.3455 10.3455 8.5 11.9999 8.5Z" fill="#179CE6"/>
<path d="M11.13 29.7207C11.3839 29.902 11.688 29.9994 12 29.9994C12.312 29.9994 12.6161 29.902 12.87 29.7207C13.326 29.3982 24.0434 21.6598 23.9999 11.9999C23.9999 5.38344 18.6164 0 12 0C5.38357 0 0.000132055 5.38344 0.000132055 11.9924C-0.0433675 21.6598 10.674 29.3982 11.13 29.7207ZM12 2.5C16.9634 2.5 21.5 7.02905 21.5 12C21.5315 18.6569 14.418 25.5395 12 27.5C9.58353 25.538 2.4685 18.6538 2.5 11.9924C2.5 7.02892 7.03655 2.5 12 2.5Z" fill="#179CE6"/>
</svg>
