<svg width="15" height="15" viewBox="0 0 15 15" fill="none" xmlns="http://www.w3.org/2000/svg">
<path d="M14.9986 6.56338L14.4775 1.05986C14.4511 0.774648 14.224 0.549296 13.9388 0.521127L8.43558 0H8.42854C8.37221 0 8.32819 0.0176057 8.29475 0.0510564L0.050507 8.29578C0.0341869 8.31206 0.0212391 8.33141 0.0124049 8.35271C0.00357061 8.37401 -0.000976562 8.39684 -0.000976562 8.41989C-0.000976562 8.44295 0.00357061 8.46578 0.0124049 8.48708C0.0212391 8.50838 0.0341869 8.52773 0.050507 8.54401L6.45506 14.9489C6.48851 14.9824 6.53252 15 6.58006 15C6.62759 15 6.6716 14.9824 6.70505 14.9489L14.9493 6.70423C14.9845 6.66725 15.0021 6.6162 14.9986 6.56338ZM6.5783 13.1813L1.81801 8.42077L8.85457 1.3838L13.2029 1.79577L13.6149 6.14437L6.5783 13.1813ZM10.4566 2.99296C9.60277 2.99296 8.90739 3.68838 8.90739 4.54225C8.90739 5.39613 9.60277 6.09155 10.4566 6.09155C11.3104 6.09155 12.0058 5.39613 12.0058 4.54225C12.0058 3.68838 11.3104 2.99296 10.4566 2.99296ZM10.4566 5.10563C10.145 5.10563 9.89324 4.85387 9.89324 4.54225C9.89324 4.23063 10.145 3.97887 10.4566 3.97887C10.7682 3.97887 11.0199 4.23063 11.0199 4.54225C11.0199 4.85387 10.7682 5.10563 10.4566 5.10563Z" fill="white"/>
</svg>
