<svg width="27" height="52" viewBox="0 0 27 52" fill="none" xmlns="http://www.w3.org/2000/svg">
<path d="M1 45.6429H26M22.4286 1H4.57143C2.78571 1 1 2.78571 1 4.57143V47.4286C1 49.2143 2.78571 51 4.57143 51H22.4286C24.2143 51 26 49.2143 26 47.4286V4.57143C26 2.78571 24.2143 1 22.4286 1ZM1 6.35714H26H1Z" stroke="#2F495E" stroke-width="2" stroke-linecap="round" stroke-linejoin="round"/>
<path d="M13.18 31.1C11.12 31.1 10.31 30.18 10.2 29H8C8.12 31.19 9.76 32.42 11.68 32.83V35H14.68V32.85C16.63 32.48 18.18 31.35 18.18 29.3C18.18 26.46 15.75 25.49 13.48 24.9C11.21 24.31 10.48 23.7 10.48 22.75C10.48 21.66 11.49 20.9 13.18 20.9C14.96 20.9 15.62 21.75 15.68 23H17.89C17.82 21.28 16.77 19.7 14.68 19.19V17H11.68V19.16C9.74 19.58 8.18 20.84 8.18 22.77C8.18 25.08 10.09 26.23 12.88 26.9C15.38 27.5 15.88 28.38 15.88 29.31C15.88 30 15.39 31.1 13.18 31.1Z" fill="#0ECD9D"/>
</svg>
