<svg width="24" height="22" viewBox="0 0 24 22" fill="none" xmlns="http://www.w3.org/2000/svg">
<path d="M23.75 19.75H2.25V0.25C2.25 0.1125 2.1375 0 2 0H0.25C0.1125 0 0 0.1125 0 0.25V21.75C0 21.8875 0.1125 22 0.25 22H23.75C23.8875 22 24 21.8875 24 21.75V20C24 19.8625 23.8875 19.75 23.75 19.75ZM5 13.875C5 14.4054 5.21071 14.9141 5.58579 15.2892C5.96086 15.6643 6.46957 15.875 7 15.875C7.53043 15.875 8.03914 15.6643 8.41421 15.2892C8.78929 14.9141 9 14.4054 9 13.875C9 13.3446 8.78929 12.8359 8.41421 12.4608C8.03914 12.0857 7.53043 11.875 7 11.875C6.46957 11.875 5.96086 12.0857 5.58579 12.4608C5.21071 12.8359 5 13.3446 5 13.875ZM8.6875 6.875C8.6875 7.27282 8.84554 7.65436 9.12684 7.93566C9.40814 8.21696 9.78968 8.375 10.1875 8.375C10.5853 8.375 10.9669 8.21696 11.2482 7.93566C11.5295 7.65436 11.6875 7.27282 11.6875 6.875C11.6875 6.47718 11.5295 6.09564 11.2482 5.81434C10.9669 5.53304 10.5853 5.375 10.1875 5.375C9.78968 5.375 9.40814 5.53304 9.12684 5.81434C8.84554 6.09564 8.6875 6.47718 8.6875 6.875ZM13.625 14C13.625 14.7956 13.9411 15.5587 14.5037 16.1213C15.0663 16.6839 15.8294 17 16.625 17C17.4206 17 18.1837 16.6839 18.7463 16.1213C19.3089 15.5587 19.625 14.7956 19.625 14C19.625 13.2044 19.3089 12.4413 18.7463 11.8787C18.1837 11.3161 17.4206 11 16.625 11C15.8294 11 15.0663 11.3161 14.5037 11.8787C13.9411 12.4413 13.625 13.2044 13.625 14ZM18.25 4.1875C18.25 4.65163 18.4344 5.09675 18.7626 5.42494C19.0908 5.75313 19.5359 5.9375 20 5.9375C20.4641 5.9375 20.9092 5.75313 21.2374 5.42494C21.5656 5.09675 21.75 4.65163 21.75 4.1875C21.75 3.72337 21.5656 3.27825 21.2374 2.95006C20.9092 2.62187 20.4641 2.4375 20 2.4375C19.5359 2.4375 19.0908 2.62187 18.7626 2.95006C18.4344 3.27825 18.25 3.72337 18.25 4.1875Z" fill="#179CE6"/>
</svg>
